<svg width="137" height="28" viewBox="0 0 137 28" fill="none" xmlns="http://www.w3.org/2000/svg">
<path d="M33.233 22V11.8182H39.3778V12.9119H34.4659V16.3523H39.0597V17.446H34.4659V20.9062H39.4574V22H33.233ZM42.0361 14.3636L43.8656 17.4858L45.6951 14.3636H47.0474L44.5815 18.1818L47.0474 22H45.6951L43.8656 19.0369L42.0361 22H40.6838L43.1099 18.1818L40.6838 14.3636H42.0361ZM51.3288 22.1591C50.5931 22.1591 49.9583 21.9967 49.4247 21.6719C48.8944 21.3438 48.4851 20.8864 48.1967 20.2997C47.9117 19.7098 47.7692 19.0237 47.7692 18.2415C47.7692 17.4593 47.9117 16.7699 48.1967 16.1733C48.4851 15.5734 48.8861 15.1061 49.3999 14.7713C49.9169 14.4332 50.5201 14.2642 51.2095 14.2642C51.6073 14.2642 52 14.3305 52.3878 14.4631C52.7756 14.5956 53.1286 14.8111 53.4467 15.1094C53.7649 15.4044 54.0185 15.7955 54.2074 16.2827C54.3963 16.7699 54.4908 17.3698 54.4908 18.0824V18.5795H48.6044V17.5653H53.2976C53.2976 17.1345 53.2114 16.75 53.0391 16.4119C52.87 16.0739 52.6281 15.8071 52.3132 15.6115C52.0017 15.416 51.6338 15.3182 51.2095 15.3182C50.7422 15.3182 50.3378 15.4342 49.9965 15.6662C49.6584 15.8949 49.3982 16.1932 49.2159 16.5611C49.0336 16.929 48.9425 17.3234 48.9425 17.7443V18.4205C48.9425 18.9972 49.0419 19.486 49.2408 19.8871C49.443 20.2848 49.723 20.5881 50.081 20.7969C50.4389 21.0024 50.8549 21.1051 51.3288 21.1051C51.6371 21.1051 51.9155 21.062 52.1641 20.9759C52.416 20.8864 52.6331 20.7538 52.8154 20.5781C52.9976 20.3991 53.1385 20.1771 53.2379 19.9119L54.3715 20.2301C54.2521 20.6146 54.0516 20.9527 53.7699 21.2443C53.4882 21.5327 53.1402 21.758 52.7259 21.9205C52.3116 22.0795 51.8459 22.1591 51.3288 22.1591ZM59.0979 22.1591C58.3819 22.1591 57.7655 21.9901 57.2484 21.652C56.7314 21.3139 56.3337 20.8482 56.0552 20.255C55.7768 19.6617 55.6376 18.9839 55.6376 18.2216C55.6376 17.446 55.7801 16.7616 56.0652 16.1683C56.3535 15.5717 56.7546 15.1061 57.2683 14.7713C57.7854 14.4332 58.3886 14.2642 59.078 14.2642C59.6149 14.2642 60.0988 14.3636 60.5297 14.5625C60.9605 14.7614 61.3135 15.0398 61.5886 15.3977C61.8637 15.7557 62.0344 16.1733 62.1007 16.6506H60.9274C60.8379 16.3026 60.639 15.9943 60.3308 15.7259C60.0259 15.4541 59.6149 15.3182 59.0979 15.3182C58.6405 15.3182 58.2394 15.4375 57.8947 15.6761C57.5533 15.9115 57.2865 16.2446 57.0943 16.6754C56.9054 17.103 56.8109 17.6051 56.8109 18.1818C56.8109 18.7718 56.9037 19.2855 57.0893 19.723C57.2783 20.1605 57.5434 20.5002 57.8848 20.7422C58.2295 20.9841 58.6338 21.1051 59.0979 21.1051C59.4028 21.1051 59.6795 21.0521 59.9281 20.946C60.1767 20.84 60.3872 20.6875 60.5595 20.4886C60.7319 20.2898 60.8545 20.0511 60.9274 19.7727H62.1007C62.0344 20.2235 61.8703 20.6295 61.6085 20.9908C61.35 21.3487 61.0069 21.6338 60.5794 21.8459C60.1551 22.0547 59.6613 22.1591 59.0979 22.1591ZM68.3484 18.8778V14.3636H69.5217V22H68.3484V20.7074H68.2688C68.0899 21.0952 67.8115 21.425 67.4336 21.6967C67.0558 21.9652 66.5785 22.0994 66.0018 22.0994C65.5245 22.0994 65.1003 21.995 64.7291 21.7862C64.3579 21.5741 64.0662 21.2559 63.8541 20.8317C63.642 20.4041 63.5359 19.8655 63.5359 19.2159V14.3636H64.7092V19.1364C64.7092 19.6932 64.865 20.1373 65.1765 20.4688C65.4914 20.8002 65.8924 20.9659 66.3796 20.9659C66.6713 20.9659 66.9679 20.8913 67.2696 20.7422C67.5745 20.593 67.8297 20.3643 68.0352 20.0561C68.244 19.7479 68.3484 19.3551 68.3484 18.8778ZM74.7117 14.3636V15.358H70.7543V14.3636H74.7117ZM71.9077 12.5341H73.081V19.8125C73.081 20.1439 73.1291 20.3925 73.2252 20.5582C73.3246 20.7206 73.4506 20.83 73.603 20.8864C73.7588 20.9394 73.9229 20.9659 74.0952 20.9659C74.2245 20.9659 74.3305 20.9593 74.4134 20.946C74.4962 20.9295 74.5625 20.9162 74.6122 20.9062L74.8509 21.9602C74.7713 21.9901 74.6603 22.0199 74.5178 22.0497C74.3753 22.0829 74.1946 22.0994 73.9759 22.0994C73.6444 22.0994 73.3196 22.0282 73.0015 21.8857C72.6866 21.7431 72.4247 21.526 72.2159 21.2344C72.0105 20.9427 71.9077 20.5748 71.9077 20.1307V12.5341ZM76.1966 22V14.3636H77.3699V22H76.1966ZM76.7932 13.0909C76.5645 13.0909 76.3673 13.013 76.2016 12.8572C76.0392 12.7015 75.958 12.5142 75.958 12.2955C75.958 12.0767 76.0392 11.8894 76.2016 11.7337C76.3673 11.5779 76.5645 11.5 76.7932 11.5C77.0219 11.5 77.2174 11.5779 77.3798 11.7337C77.5456 11.8894 77.6284 12.0767 77.6284 12.2955C77.6284 12.5142 77.5456 12.7015 77.3798 12.8572C77.2174 13.013 77.0219 13.0909 76.7932 13.0909ZM85.4832 14.3636L82.6593 22H81.4661L78.6423 14.3636H79.915L82.023 20.4489H82.1025L84.2105 14.3636H85.4832ZM89.6801 22.1591C88.9443 22.1591 88.3096 21.9967 87.776 21.6719C87.2457 21.3438 86.8363 20.8864 86.548 20.2997C86.263 19.7098 86.1204 19.0237 86.1204 18.2415C86.1204 17.4593 86.263 16.7699 86.548 16.1733C86.8363 15.5734 87.2374 15.1061 87.7511 14.7713C88.2682 14.4332 88.8714 14.2642 89.5608 14.2642C89.9585 14.2642 90.3513 14.3305 90.739 14.4631C91.1268 14.5956 91.4798 14.8111 91.798 15.1094C92.1162 15.4044 92.3697 15.7955 92.5586 16.2827C92.7476 16.7699 92.842 17.3698 92.842 18.0824V18.5795H86.9557V17.5653H91.6488C91.6488 17.1345 91.5627 16.75 91.3903 16.4119C91.2213 16.0739 90.9793 15.8071 90.6645 15.6115C90.3529 15.416 89.985 15.3182 89.5608 15.3182C89.0935 15.3182 88.6891 15.4342 88.3477 15.6662C88.0096 15.8949 87.7495 16.1932 87.5672 16.5611C87.3849 16.929 87.2937 17.3234 87.2937 17.7443V18.4205C87.2937 18.9972 87.3932 19.486 87.592 19.8871C87.7942 20.2848 88.0743 20.5881 88.4322 20.7969C88.7902 21.0024 89.2061 21.1051 89.6801 21.1051C89.9883 21.1051 90.2667 21.062 90.5153 20.9759C90.7672 20.8864 90.9843 20.7538 91.1666 20.5781C91.3489 20.3991 91.4898 20.1771 91.5892 19.9119L92.7227 20.2301C92.6034 20.6146 92.4029 20.9527 92.1211 21.2443C91.8394 21.5327 91.4914 21.758 91.0771 21.9205C90.6628 22.0795 90.1971 22.1591 89.6801 22.1591ZM98.581 11.8182L101.604 20.3892H101.723L104.746 11.8182H106.038L102.3 22H101.027L97.2884 11.8182H98.581ZM107.185 22V14.3636H108.359V22H107.185ZM107.782 13.0909C107.553 13.0909 107.356 13.013 107.19 12.8572C107.028 12.7015 106.947 12.5142 106.947 12.2955C106.947 12.0767 107.028 11.8894 107.19 11.7337C107.356 11.5779 107.553 11.5 107.782 11.5C108.011 11.5 108.206 11.5779 108.369 11.7337C108.534 11.8894 108.617 12.0767 108.617 12.2955C108.617 12.5142 108.534 12.7015 108.369 12.8572C108.206 13.013 108.011 13.0909 107.782 13.0909ZM113.429 22.1591C112.693 22.1591 112.059 21.9967 111.525 21.6719C110.995 21.3438 110.585 20.8864 110.297 20.2997C110.012 19.7098 109.87 19.0237 109.87 18.2415C109.87 17.4593 110.012 16.7699 110.297 16.1733C110.585 15.5734 110.987 15.1061 111.5 14.7713C112.017 14.4332 112.621 14.2642 113.31 14.2642C113.708 14.2642 114.1 14.3305 114.488 14.4631C114.876 14.5956 115.229 14.8111 115.547 15.1094C115.865 15.4044 116.119 15.7955 116.308 16.2827C116.497 16.7699 116.591 17.3698 116.591 18.0824V18.5795H110.705V17.5653H115.398C115.398 17.1345 115.312 16.75 115.139 16.4119C114.97 16.0739 114.728 15.8071 114.414 15.6115C114.102 15.416 113.734 15.3182 113.31 15.3182C112.843 15.3182 112.438 15.4342 112.097 15.6662C111.759 15.8949 111.499 16.1932 111.316 16.5611C111.134 16.929 111.043 17.3234 111.043 17.7443V18.4205C111.043 18.9972 111.142 19.486 111.341 19.8871C111.543 20.2848 111.823 20.5881 112.181 20.7969C112.539 21.0024 112.955 21.1051 113.429 21.1051C113.737 21.1051 114.016 21.062 114.264 20.9759C114.516 20.8864 114.733 20.7538 114.916 20.5781C115.098 20.3991 115.239 20.1771 115.338 19.9119L116.472 20.2301C116.353 20.6146 116.152 20.9527 115.87 21.2443C115.589 21.5327 115.241 21.758 114.826 21.9205C114.412 22.0795 113.946 22.1591 113.429 22.1591ZM119.826 22L117.499 14.3636H118.732L120.383 20.2102H120.462L122.093 14.3636H123.346L124.957 20.1903H125.036L126.687 14.3636H127.92L125.593 22H124.44L122.769 16.1335H122.65L120.979 22H119.826Z" fill="#777672"/>
<path d="M8.9712 9.48439C8.91822 9.44725 8.85508 9.42732 8.79037 9.42732C8.72566 9.42732 8.66252 9.44725 8.60954 9.48439C8.14287 9.79939 8.78454 12.3311 9.22787 12.6811C9.28198 12.7153 9.34468 12.7334 9.4087 12.7334C9.47272 12.7334 9.53543 12.7153 9.58954 12.6811C9.64787 12.8677 9.71787 13.0544 9.79954 13.2294C10.1256 13.944 10.5161 14.6273 10.9662 15.2711C11.3147 15.7496 11.7615 16.1481 12.2766 16.4399C12.7917 16.7316 13.3632 16.9099 13.9529 16.9627C14.6065 16.9859 15.2535 16.8255 15.8205 16.4997C16.3876 16.1739 16.8521 15.6957 17.1612 15.1194L17.4062 14.7694C17.6783 14.3232 17.9125 13.8548 18.1062 13.3694C18.1762 13.2061 18.2345 13.0194 18.2812 12.8444C18.3291 12.85 18.3777 12.8457 18.4239 12.8316C18.4701 12.8176 18.5129 12.7941 18.5495 12.7627C18.9929 12.4244 19.6345 9.88106 19.1679 9.56606C19.1261 9.53178 19.077 9.50762 19.0244 9.49548C18.9718 9.48334 18.9171 9.48353 18.8645 9.49606C19.0045 8.71439 19.0979 8.25939 19.0979 8.25939C19.7745 4.75939 15.7495 1.76106 12.6112 2.42606C12.0785 2.50768 11.5718 2.71123 11.1306 3.02085C10.6894 3.33047 10.3257 3.73779 10.0679 4.21106C7.73454 4.49106 8.3762 7.40773 8.3762 7.40773L8.9712 9.48439Z" fill="#D9AA0F"/>
<path d="M24.2202 19.3545L18.2702 17.1028C18.2702 17.0328 16.6952 19.9261 15.4468 22.2245C15.4086 20.8886 15.0865 19.5762 14.5018 18.3745H13.3352C12.7368 19.5682 12.4063 20.8781 12.3668 22.2128C11.0952 19.8795 9.49683 17.0795 9.49683 17.1145L3.6635 19.3428C3.6635 19.3428 2.73016 19.3428 2.49683 20.8711C2.4035 21.7345 2.35683 22.6328 2.3335 23.2045C2.33955 23.4642 2.42576 23.7157 2.58031 23.9246C2.73486 24.1334 2.9502 24.2894 3.19683 24.3711C4.55016 24.8378 7.6535 25.5378 13.8835 25.6078C20.1135 25.6778 23.2168 24.8378 24.5702 24.3711C24.8168 24.2894 25.0321 24.1334 25.1867 23.9246C25.3412 23.7157 25.4274 23.4642 25.4335 23.2045C25.4335 22.5745 25.3752 21.6761 25.2702 20.8711C25.1652 19.3078 24.2202 19.3545 24.2202 19.3545Z" fill="#D9AA0F"/>
</svg>
