<svg width="153" height="28" viewBox="0 0 153 28" fill="none" xmlns="http://www.w3.org/2000/svg">
<path d="M32.8849 22V11.8182H36.902C37.6742 11.8182 38.3321 11.9657 38.8757 12.2607C39.4193 12.5523 39.8336 12.9583 40.1186 13.4787C40.407 13.9957 40.5511 14.5923 40.5511 15.2685C40.5511 15.9446 40.4053 16.5412 40.1136 17.0582C39.822 17.5753 39.3994 17.978 38.8459 18.2663C38.2957 18.5547 37.6295 18.6989 36.8473 18.6989H34.2869V16.9737H36.4993C36.9136 16.9737 37.255 16.9025 37.5234 16.7599C37.7952 16.6141 37.9974 16.4136 38.13 16.1584C38.2659 15.8999 38.3338 15.6032 38.3338 15.2685C38.3338 14.9304 38.2659 14.6354 38.13 14.3835C37.9974 14.1283 37.7952 13.9311 37.5234 13.7919C37.2517 13.6494 36.907 13.5781 36.4893 13.5781H35.0376V22H32.8849ZM41.6296 22V14.3636H43.6829V15.696H43.7624C43.9016 15.2221 44.1353 14.8641 44.4634 14.6222C44.7916 14.3769 45.1694 14.2543 45.597 14.2543C45.703 14.2543 45.8174 14.2609 45.94 14.2741C46.0626 14.2874 46.1703 14.3056 46.2631 14.3288V16.2081C46.1637 16.1783 46.0262 16.1518 45.8505 16.1286C45.6748 16.1054 45.5141 16.0938 45.3683 16.0938C45.0567 16.0938 44.7783 16.1617 44.533 16.2976C44.2911 16.4302 44.0988 16.6158 43.9563 16.8544C43.8171 17.093 43.7475 17.3681 43.7475 17.6797V22H41.6296ZM50.173 22.1491C49.4007 22.1491 48.7329 21.9851 48.1694 21.657C47.6093 21.3255 47.1767 20.8648 46.8718 20.2749C46.5669 19.6816 46.4144 18.9938 46.4144 18.2116C46.4144 17.4228 46.5669 16.7334 46.8718 16.1435C47.1767 15.5502 47.6093 15.0895 48.1694 14.7614C48.7329 14.4299 49.4007 14.2642 50.173 14.2642C50.9452 14.2642 51.6114 14.4299 52.1715 14.7614C52.735 15.0895 53.1692 15.5502 53.4741 16.1435C53.779 16.7334 53.9315 17.4228 53.9315 18.2116C53.9315 18.9938 53.779 19.6816 53.4741 20.2749C53.1692 20.8648 52.735 21.3255 52.1715 21.657C51.6114 21.9851 50.9452 22.1491 50.173 22.1491ZM50.1829 20.5085C50.5342 20.5085 50.8275 20.4091 51.0629 20.2102C51.2982 20.008 51.4755 19.733 51.5948 19.3849C51.7175 19.0369 51.7788 18.6409 51.7788 18.1967C51.7788 17.7526 51.7175 17.3565 51.5948 17.0085C51.4755 16.6605 51.2982 16.3854 51.0629 16.1832C50.8275 15.9811 50.5342 15.88 50.1829 15.88C49.8283 15.88 49.53 15.9811 49.288 16.1832C49.0494 16.3854 48.8687 16.6605 48.7461 17.0085C48.6268 17.3565 48.5671 17.7526 48.5671 18.1967C48.5671 18.6409 48.6268 19.0369 48.7461 19.3849C48.8687 19.733 49.0494 20.008 49.288 20.2102C49.53 20.4091 49.8283 20.5085 50.1829 20.5085ZM57.8425 22.1243C57.2625 22.1243 56.7372 21.9751 56.2665 21.6768C55.7992 21.3752 55.428 20.9328 55.1529 20.3494C54.8811 19.7628 54.7452 19.0436 54.7452 18.1918C54.7452 17.3168 54.8861 16.5893 55.1678 16.0092C55.4495 15.4259 55.8241 14.9901 56.2914 14.7017C56.762 14.41 57.2774 14.2642 57.8376 14.2642C58.2651 14.2642 58.6214 14.3371 58.9064 14.483C59.1948 14.6255 59.4268 14.8045 59.6025 15.0199C59.7814 15.232 59.9173 15.4408 60.0101 15.6463H60.0748V11.8182H62.1877V22H60.0996V20.777H60.0101C59.9107 20.9891 59.7698 21.1996 59.5876 21.4084C59.4086 21.6139 59.1749 21.7846 58.8866 21.9205C58.6015 22.0563 58.2535 22.1243 57.8425 22.1243ZM58.5137 20.4389C58.8551 20.4389 59.1434 20.3461 59.3787 20.1605C59.6174 19.9716 59.7997 19.7081 59.9256 19.37C60.0549 19.032 60.1195 18.6359 60.1195 18.1818C60.1195 17.7277 60.0565 17.3333 59.9306 16.9986C59.8046 16.6638 59.6224 16.4053 59.3837 16.223C59.1451 16.0407 58.8551 15.9496 58.5137 15.9496C58.1657 15.9496 57.8724 16.044 57.6337 16.233C57.3951 16.4219 57.2145 16.6837 57.0918 17.0185C56.9692 17.3532 56.9079 17.741 56.9079 18.1818C56.9079 18.6259 56.9692 19.0187 57.0918 19.3601C57.2178 19.6982 57.3984 19.9633 57.6337 20.1555C57.8724 20.3445 58.1657 20.4389 58.5137 20.4389ZM68.546 18.7486V14.3636H70.6639V22H68.6305V20.6129H68.551C68.3786 21.0604 68.0919 21.42 67.6909 21.6918C67.2932 21.9635 66.8076 22.0994 66.2342 22.0994C65.7238 22.0994 65.2747 21.9834 64.8869 21.7514C64.4991 21.5194 64.1959 21.1896 63.9771 20.7621C63.7617 20.3345 63.6523 19.8224 63.649 19.2259V14.3636H65.7669V18.848C65.7702 19.2988 65.8912 19.6551 66.1298 19.9169C66.3685 20.1787 66.6883 20.3097 67.0893 20.3097C67.3445 20.3097 67.5832 20.2517 67.8052 20.1357C68.0273 20.0163 68.2063 19.8407 68.3422 19.6087C68.4814 19.3767 68.5493 19.09 68.546 18.7486ZM75.5283 22.1491C74.7461 22.1491 74.0732 21.9834 73.5098 21.652C72.9497 21.3172 72.5188 20.8532 72.2172 20.2599C71.9189 19.6667 71.7697 18.9839 71.7697 18.2116C71.7697 17.4295 71.9205 16.7434 72.2222 16.1534C72.5271 15.5601 72.9596 15.0978 73.5197 14.7663C74.0799 14.4316 74.7461 14.2642 75.5183 14.2642C76.1845 14.2642 76.7678 14.3852 77.2683 14.6271C77.7688 14.8691 78.1649 15.2088 78.4565 15.6463C78.7482 16.0838 78.9089 16.5975 78.9388 17.1875H76.9402C76.8839 16.8063 76.7347 16.4998 76.4928 16.2678C76.2541 16.0324 75.9409 15.9148 75.5531 15.9148C75.225 15.9148 74.9383 16.0043 74.693 16.1832C74.4511 16.3589 74.2622 16.6158 74.1263 16.9538C73.9904 17.2919 73.9224 17.7012 73.9224 18.1818C73.9224 18.669 73.9887 19.0833 74.1213 19.4247C74.2572 19.7661 74.4478 20.0263 74.693 20.2053C74.9383 20.3842 75.225 20.4737 75.5531 20.4737C75.7951 20.4737 76.0122 20.424 76.2044 20.3246C76.4 20.2251 76.5607 20.081 76.6866 19.892C76.8159 19.6998 76.9004 19.4695 76.9402 19.201H78.9388C78.9056 19.7843 78.7465 20.2981 78.4615 20.7422C78.1798 21.183 77.7903 21.5277 77.2932 21.7763C76.796 22.0249 76.2077 22.1491 75.5283 22.1491ZM84.0766 14.3636V15.9545H79.4778V14.3636H84.0766ZM80.5219 12.5341H82.6398V19.6534C82.6398 19.849 82.6696 20.0014 82.7293 20.1108C82.7889 20.2169 82.8718 20.2914 82.9778 20.3345C83.0872 20.3776 83.2132 20.3991 83.3557 20.3991C83.4551 20.3991 83.5546 20.3909 83.654 20.3743C83.7534 20.3544 83.8296 20.3395 83.8827 20.3295L84.2158 21.9055C84.1097 21.9387 83.9606 21.9768 83.7683 22.0199C83.5761 22.0663 83.3424 22.0945 83.0673 22.1044C82.5569 22.1243 82.1095 22.0563 81.725 21.9006C81.3439 21.7448 81.0472 21.5028 80.8351 21.1747C80.623 20.8466 80.5186 20.4323 80.5219 19.9318V12.5341ZM85.1762 22V14.3636H87.2941V22H85.1762ZM86.2401 13.3793C85.9252 13.3793 85.6551 13.2749 85.4297 13.0661C85.2077 12.8539 85.0966 12.6004 85.0966 12.3054C85.0966 12.0137 85.2077 11.7635 85.4297 11.5547C85.6551 11.3426 85.9252 11.2365 86.2401 11.2365C86.555 11.2365 86.8234 11.3426 87.0455 11.5547C87.2709 11.7635 87.3836 12.0137 87.3836 12.3054C87.3836 12.6004 87.2709 12.8539 87.0455 13.0661C86.8234 13.2749 86.555 13.3793 86.2401 13.3793ZM92.1609 22.1491C91.3887 22.1491 90.7208 21.9851 90.1574 21.657C89.5972 21.3255 89.1647 20.8648 88.8598 20.2749C88.5549 19.6816 88.4024 18.9938 88.4024 18.2116C88.4024 17.4228 88.5549 16.7334 88.8598 16.1435C89.1647 15.5502 89.5972 15.0895 90.1574 14.7614C90.7208 14.4299 91.3887 14.2642 92.1609 14.2642C92.9332 14.2642 93.5994 14.4299 94.1595 14.7614C94.7229 15.0895 95.1571 15.5502 95.4621 16.1435C95.767 16.7334 95.9194 17.4228 95.9194 18.2116C95.9194 18.9938 95.767 19.6816 95.4621 20.2749C95.1571 20.8648 94.7229 21.3255 94.1595 21.657C93.5994 21.9851 92.9332 22.1491 92.1609 22.1491ZM92.1709 20.5085C92.5222 20.5085 92.8155 20.4091 93.0508 20.2102C93.2862 20.008 93.4635 19.733 93.5828 19.3849C93.7054 19.0369 93.7667 18.6409 93.7667 18.1967C93.7667 17.7526 93.7054 17.3565 93.5828 17.0085C93.4635 16.6605 93.2862 16.3854 93.0508 16.1832C92.8155 15.9811 92.5222 15.88 92.1709 15.88C91.8162 15.88 91.5179 15.9811 91.276 16.1832C91.0373 16.3854 90.8567 16.6605 90.7341 17.0085C90.6148 17.3565 90.5551 17.7526 90.5551 18.1967C90.5551 18.6409 90.6148 19.0369 90.7341 19.3849C90.8567 19.733 91.0373 20.008 91.276 20.2102C91.5179 20.4091 91.8162 20.5085 92.1709 20.5085ZM99.1345 17.5852V22H97.0166V14.3636H99.035V15.7109H99.1245C99.2936 15.2668 99.5769 14.9155 99.9747 14.657C100.372 14.3951 100.855 14.2642 101.421 14.2642C101.952 14.2642 102.414 14.3802 102.808 14.6122C103.203 14.8442 103.509 15.1757 103.728 15.6065C103.947 16.0341 104.056 16.5445 104.056 17.1378V22H101.938V17.5156C101.942 17.0483 101.822 16.6837 101.581 16.4219C101.339 16.1567 101.005 16.0241 100.581 16.0241C100.296 16.0241 100.044 16.0855 99.8255 16.2081C99.6101 16.3307 99.4411 16.5097 99.3184 16.745C99.1991 16.977 99.1378 17.2571 99.1345 17.5852ZM112.055 22H108.446V11.8182H112.085C113.109 11.8182 113.991 12.022 114.73 12.4297C115.469 12.834 116.037 13.4157 116.435 14.1747C116.836 14.9337 117.036 15.8419 117.036 16.8991C117.036 17.9598 116.836 18.8712 116.435 19.6335C116.037 20.3958 115.465 20.9808 114.72 21.3885C113.977 21.7962 113.089 22 112.055 22ZM110.598 20.1555H111.965C112.602 20.1555 113.137 20.0429 113.571 19.8175C114.009 19.5888 114.337 19.2358 114.556 18.7585C114.778 18.2779 114.889 17.6581 114.889 16.8991C114.889 16.1468 114.778 15.532 114.556 15.0547C114.337 14.5774 114.01 14.2261 113.576 14.0007C113.142 13.7753 112.607 13.6626 111.97 13.6626H110.598V20.1555ZM121.791 22.1491C121.006 22.1491 120.33 21.9901 119.763 21.6719C119.2 21.3504 118.765 20.8963 118.46 20.3097C118.156 19.7197 118.003 19.022 118.003 18.2166C118.003 17.4311 118.156 16.7417 118.46 16.1484C118.765 15.5552 119.195 15.0928 119.748 14.7614C120.305 14.4299 120.958 14.2642 121.707 14.2642C122.211 14.2642 122.68 14.3454 123.114 14.5078C123.551 14.6669 123.933 14.9072 124.257 15.2287C124.585 15.5502 124.841 15.9545 125.023 16.4418C125.205 16.9257 125.296 17.4924 125.296 18.142V18.7237H118.848V17.4112H123.303C123.303 17.1063 123.237 16.8362 123.104 16.6009C122.971 16.3655 122.787 16.1816 122.552 16.049C122.32 15.9131 122.05 15.8452 121.742 15.8452C121.42 15.8452 121.135 15.9197 120.887 16.0689C120.641 16.2147 120.449 16.4119 120.31 16.6605C120.171 16.9058 120.099 17.1792 120.096 17.4808V18.7287C120.096 19.1065 120.166 19.433 120.305 19.7081C120.447 19.9832 120.648 20.1953 120.907 20.3445C121.165 20.4936 121.472 20.5682 121.826 20.5682C122.062 20.5682 122.277 20.535 122.473 20.4688C122.668 20.4025 122.835 20.303 122.975 20.1705C123.114 20.0379 123.22 19.8755 123.293 19.6832L125.252 19.8125C125.152 20.2831 124.948 20.6941 124.64 21.0455C124.335 21.3935 123.941 21.6652 123.457 21.8608C122.976 22.053 122.421 22.1491 121.791 22.1491ZM130.46 14.3636V15.9545H125.862V14.3636H130.46ZM126.906 12.5341H129.024V19.6534C129.024 19.849 129.053 20.0014 129.113 20.1108C129.173 20.2169 129.256 20.2914 129.362 20.3345C129.471 20.3776 129.597 20.3991 129.739 20.3991C129.839 20.3991 129.938 20.3909 130.038 20.3743C130.137 20.3544 130.213 20.3395 130.266 20.3295L130.6 21.9055C130.493 21.9387 130.344 21.9768 130.152 22.0199C129.96 22.0663 129.726 22.0945 129.451 22.1044C128.941 22.1243 128.493 22.0563 128.109 21.9006C127.728 21.7448 127.431 21.5028 127.219 21.1747C127.007 20.8466 126.902 20.4323 126.906 19.9318V12.5341ZM133.737 22.1442C133.25 22.1442 132.816 22.0597 132.435 21.8906C132.054 21.7183 131.752 21.4647 131.53 21.13C131.311 20.7919 131.202 20.371 131.202 19.8672C131.202 19.4429 131.28 19.0866 131.436 18.7983C131.591 18.5099 131.804 18.2779 132.072 18.1023C132.34 17.9266 132.645 17.794 132.987 17.7045C133.331 17.6151 133.693 17.5521 134.071 17.5156C134.515 17.4692 134.873 17.4261 135.144 17.3864C135.416 17.3433 135.613 17.2803 135.736 17.1974C135.859 17.1146 135.92 16.992 135.92 16.8295V16.7997C135.92 16.4848 135.821 16.2412 135.622 16.0689C135.426 15.8965 135.148 15.8104 134.787 15.8104C134.405 15.8104 134.102 15.8949 133.877 16.0639C133.651 16.2296 133.502 16.4384 133.429 16.6903L131.47 16.5312C131.57 16.0672 131.765 15.6662 132.057 15.3281C132.349 14.9867 132.725 14.7249 133.186 14.5426C133.65 14.357 134.187 14.2642 134.796 14.2642C135.221 14.2642 135.627 14.3139 136.014 14.4134C136.406 14.5128 136.752 14.6669 137.054 14.8757C137.358 15.0845 137.599 15.353 137.774 15.6811C137.95 16.0059 138.038 16.3954 138.038 16.8494V22H136.029V20.9411H135.97C135.847 21.1797 135.683 21.3902 135.478 21.5724C135.272 21.7514 135.025 21.8923 134.737 21.995C134.448 22.0945 134.115 22.1442 133.737 22.1442ZM134.344 20.6825C134.656 20.6825 134.931 20.6212 135.169 20.4986C135.408 20.3726 135.595 20.2036 135.731 19.9915C135.867 19.7794 135.935 19.5391 135.935 19.2706V18.4602C135.869 18.5033 135.778 18.5431 135.662 18.5795C135.549 18.6127 135.421 18.6442 135.279 18.674C135.136 18.7005 134.994 18.7254 134.851 18.7486C134.709 18.7685 134.579 18.7867 134.463 18.8033C134.215 18.8397 133.998 18.8977 133.812 18.9773C133.626 19.0568 133.482 19.1645 133.38 19.3004C133.277 19.433 133.225 19.5987 133.225 19.7976C133.225 20.0859 133.33 20.3063 133.539 20.4588C133.751 20.608 134.019 20.6825 134.344 20.6825ZM139.401 22V14.3636H141.519V22H139.401ZM140.465 13.3793C140.15 13.3793 139.88 13.2749 139.655 13.0661C139.433 12.8539 139.321 12.6004 139.321 12.3054C139.321 12.0137 139.433 11.7635 139.655 11.5547C139.88 11.3426 140.15 11.2365 140.465 11.2365C140.78 11.2365 141.048 11.3426 141.27 11.5547C141.496 11.7635 141.608 12.0137 141.608 12.3054C141.608 12.6004 141.496 12.8539 141.27 13.0661C141.048 13.2749 140.78 13.3793 140.465 13.3793ZM145.053 11.8182V22H142.935V11.8182H145.053ZM152.824 16.5412L150.885 16.6605C150.852 16.4948 150.78 16.3456 150.671 16.2131C150.562 16.0772 150.417 15.9695 150.238 15.8899C150.063 15.8071 149.852 15.7656 149.607 15.7656C149.279 15.7656 149.002 15.8352 148.777 15.9744C148.551 16.1103 148.439 16.2926 148.439 16.5213C148.439 16.7036 148.512 16.8577 148.657 16.9837C148.803 17.1096 149.054 17.2107 149.408 17.2869L150.79 17.5653C151.533 17.7178 152.086 17.9631 152.451 18.3011C152.815 18.6392 152.998 19.0833 152.998 19.6335C152.998 20.134 152.85 20.5732 152.555 20.951C152.263 21.3288 151.862 21.6238 151.352 21.8359C150.845 22.0447 150.26 22.1491 149.597 22.1491C148.586 22.1491 147.781 21.9387 147.181 21.5178C146.584 21.0935 146.235 20.5168 146.132 19.7876L148.215 19.6783C148.278 19.9865 148.43 20.2218 148.672 20.3842C148.914 20.5433 149.224 20.6229 149.602 20.6229C149.973 20.6229 150.272 20.5516 150.497 20.4091C150.726 20.2633 150.842 20.076 150.845 19.8473C150.842 19.6551 150.76 19.4976 150.601 19.375C150.442 19.2491 150.197 19.1529 149.866 19.0866L148.543 18.8232C147.797 18.674 147.242 18.4155 146.878 18.0476C146.516 17.6797 146.336 17.2107 146.336 16.6406C146.336 16.1501 146.468 15.7275 146.733 15.3729C147.002 15.0182 147.378 14.7448 147.862 14.5526C148.349 14.3603 148.919 14.2642 149.572 14.2642C150.537 14.2642 151.296 14.468 151.849 14.8757C152.406 15.2834 152.731 15.8385 152.824 16.5412Z" fill="#625118"/>
<path d="M4.66667 24.5005C6.00483 19.8105 6.98017 15.1357 7 10.5005H14C14.0198 15.1357 14.9952 19.8105 16.3333 24.5005M14.5833 15.1672H19.8333C19.8625 18.2145 20.8763 21.3458 22.1667 24.5005M10.5 5.8333C10.765 5.46406 11.116 5.16488 11.5225 4.96162C11.929 4.75836 12.3789 4.65711 12.8333 4.66663C13.2877 4.65711 13.7376 4.75836 14.1442 4.96162C14.5507 5.16488 14.9016 5.46406 15.1667 5.8333C15.4317 6.20254 15.7826 6.50171 16.1892 6.70497C16.5957 6.90824 17.0456 7.00948 17.5 6.99996C17.9544 7.00948 18.4043 6.90824 18.8108 6.70497C19.2174 6.50171 19.5683 6.20254 19.8333 5.8333C20.0984 5.46406 20.4493 5.16488 20.8558 4.96162C21.2624 4.75836 21.7123 4.65711 22.1667 4.66663C22.6211 4.65711 23.071 4.75836 23.4775 4.96162C23.884 5.16488 24.235 5.46406 24.5 5.8333M3.5 24.5005H25.6667" stroke="#D9AA0F" stroke-width="2" stroke-linecap="round" stroke-linejoin="round"/>
</svg>
