<svg width="148" height="28" viewBox="0 0 148 28" fill="none" xmlns="http://www.w3.org/2000/svg">
<path d="M33.233 22V11.8182H36.6733C37.4721 11.8182 38.125 11.9624 38.6321 12.2507C39.1425 12.5357 39.5204 12.9219 39.7656 13.4091C40.0109 13.8963 40.1335 14.4399 40.1335 15.0398C40.1335 15.6397 40.0109 16.1849 39.7656 16.6754C39.5237 17.166 39.1491 17.5571 38.642 17.8487C38.1349 18.1371 37.4853 18.2812 36.6932 18.2812H34.2273V17.1875H36.6534C37.2003 17.1875 37.6394 17.093 37.9709 16.9041C38.3023 16.7152 38.5426 16.46 38.6918 16.1385C38.8442 15.8137 38.9205 15.4474 38.9205 15.0398C38.9205 14.6321 38.8442 14.2675 38.6918 13.946C38.5426 13.6245 38.3007 13.3726 37.9659 13.1903C37.6312 13.0047 37.187 12.9119 36.6335 12.9119H34.4659V22H33.233ZM41.6806 22V14.3636H42.8141V15.517H42.8937C43.0329 15.1392 43.2847 14.8326 43.6493 14.5973C44.0139 14.362 44.4249 14.2443 44.8823 14.2443C44.9685 14.2443 45.0762 14.246 45.2054 14.2493C45.3347 14.2526 45.4325 14.2576 45.4988 14.2642V15.4574C45.459 15.4474 45.3678 15.4325 45.2253 15.4126C45.0861 15.3894 44.9386 15.3778 44.7829 15.3778C44.4116 15.3778 44.0802 15.4557 43.7885 15.6115C43.5002 15.764 43.2715 15.9761 43.1025 16.2479C42.9367 16.5163 42.8539 16.8229 42.8539 17.1676V22H41.6806ZM49.4794 22.1591C48.79 22.1591 48.1851 21.995 47.6648 21.6669C47.1477 21.3388 46.7434 20.8797 46.4517 20.2898C46.1634 19.6998 46.0192 19.0104 46.0192 18.2216C46.0192 17.4261 46.1634 16.7318 46.4517 16.1385C46.7434 15.5452 47.1477 15.0845 47.6648 14.7564C48.1851 14.4283 48.79 14.2642 49.4794 14.2642C50.1688 14.2642 50.772 14.4283 51.2891 14.7564C51.8094 15.0845 52.2138 15.5452 52.5021 16.1385C52.7938 16.7318 52.9396 17.4261 52.9396 18.2216C52.9396 19.0104 52.7938 19.6998 52.5021 20.2898C52.2138 20.8797 51.8094 21.3388 51.2891 21.6669C50.772 21.995 50.1688 22.1591 49.4794 22.1591ZM49.4794 21.1051C50.0031 21.1051 50.434 20.9709 50.772 20.7024C51.1101 20.4339 51.3603 20.081 51.5227 19.6435C51.6851 19.206 51.7663 18.732 51.7663 18.2216C51.7663 17.7112 51.6851 17.2356 51.5227 16.7947C51.3603 16.3539 51.1101 15.9976 50.772 15.7259C50.434 15.4541 50.0031 15.3182 49.4794 15.3182C48.9557 15.3182 48.5249 15.4541 48.1868 15.7259C47.8487 15.9976 47.5985 16.3539 47.4361 16.7947C47.2737 17.2356 47.1925 17.7112 47.1925 18.2216C47.1925 18.732 47.2737 19.206 47.4361 19.6435C47.5985 20.081 47.8487 20.4339 48.1868 20.7024C48.5249 20.9709 48.9557 21.1051 49.4794 21.1051ZM57.3342 22.1591C56.6978 22.1591 56.136 21.9983 55.6488 21.6768C55.1616 21.352 54.7804 20.8946 54.5053 20.3047C54.2303 19.7114 54.0927 19.0104 54.0927 18.2017C54.0927 17.3996 54.2303 16.7036 54.5053 16.1136C54.7804 15.5237 55.1633 15.0679 55.6538 14.7464C56.1443 14.425 56.7111 14.2642 57.3541 14.2642C57.8512 14.2642 58.244 14.3471 58.5323 14.5128C58.824 14.6752 59.0461 14.8608 59.1985 15.0696C59.3543 15.2751 59.4753 15.4441 59.5615 15.5767H59.6609V11.8182H60.8342V22H59.7007V20.8267H59.5615C59.4753 20.9659 59.3526 21.1416 59.1936 21.3537C59.0345 21.5625 58.8074 21.7498 58.5125 21.9155C58.2175 22.0779 57.8247 22.1591 57.3342 22.1591ZM57.4933 21.1051C57.9639 21.1051 58.3616 20.9825 58.6865 20.7372C59.0113 20.4886 59.2582 20.1456 59.4272 19.7081C59.5963 19.2673 59.6808 18.7585 59.6808 18.1818C59.6808 17.6117 59.5979 17.1129 59.4322 16.6854C59.2665 16.2545 59.0212 15.9197 58.6964 15.6811C58.3716 15.4392 57.9705 15.3182 57.4933 15.3182C56.9961 15.3182 56.5818 15.4458 56.2504 15.701C55.9223 15.9529 55.6753 16.2959 55.5096 16.7301C55.3472 17.161 55.266 17.6449 55.266 18.1818C55.266 18.7254 55.3489 19.2192 55.5146 19.6634C55.6836 20.1042 55.9322 20.4555 56.2603 20.7173C56.5918 20.9759 57.0027 21.1051 57.4933 21.1051ZM67.6785 18.8778V14.3636H68.8518V22H67.6785V20.7074H67.5989C67.4199 21.0952 67.1415 21.425 66.7637 21.6967C66.3859 21.9652 65.9086 22.0994 65.3319 22.0994C64.8546 22.0994 64.4304 21.995 64.0592 21.7862C63.6879 21.5741 63.3963 21.2559 63.1842 20.8317C62.972 20.4041 62.866 19.8655 62.866 19.2159V14.3636H64.0393V19.1364C64.0393 19.6932 64.195 20.1373 64.5066 20.4688C64.8215 20.8002 65.2225 20.9659 65.7097 20.9659C66.0014 20.9659 66.298 20.8913 66.5996 20.7422C66.9046 20.593 67.1598 20.3643 67.3653 20.0561C67.5741 19.7479 67.6785 19.3551 67.6785 18.8778ZM73.823 22.1591C73.1071 22.1591 72.4906 21.9901 71.9736 21.652C71.4565 21.3139 71.0588 20.8482 70.7804 20.255C70.502 19.6617 70.3628 18.9839 70.3628 18.2216C70.3628 17.446 70.5053 16.7616 70.7903 16.1683C71.0787 15.5717 71.4797 15.1061 71.9935 14.7713C72.5105 14.4332 73.1137 14.2642 73.8031 14.2642C74.3401 14.2642 74.824 14.3636 75.2548 14.5625C75.6857 14.7614 76.0387 15.0398 76.3138 15.3977C76.5889 15.7557 76.7596 16.1733 76.8259 16.6506H75.6526C75.5631 16.3026 75.3642 15.9943 75.056 15.7259C74.751 15.4541 74.3401 15.3182 73.823 15.3182C73.3656 15.3182 72.9646 15.4375 72.6199 15.6761C72.2785 15.9115 72.0117 16.2446 71.8195 16.6754C71.6305 17.103 71.5361 17.6051 71.5361 18.1818C71.5361 18.7718 71.6289 19.2855 71.8145 19.723C72.0034 20.1605 72.2686 20.5002 72.6099 20.7422C72.9546 20.9841 73.359 21.1051 73.823 21.1051C74.1279 21.1051 74.4047 21.0521 74.6533 20.946C74.9018 20.84 75.1123 20.6875 75.2847 20.4886C75.457 20.2898 75.5796 20.0511 75.6526 19.7727H76.8259C76.7596 20.2235 76.5955 20.6295 76.3337 20.9908C76.0751 21.3487 75.7321 21.6338 75.3045 21.8459C74.8803 22.0547 74.3865 22.1591 73.823 22.1591ZM81.5821 14.3636V15.358H77.6247V14.3636H81.5821ZM78.7781 12.5341H79.9514V19.8125C79.9514 20.1439 79.9995 20.3925 80.0956 20.5582C80.195 20.7206 80.3209 20.83 80.4734 20.8864C80.6292 20.9394 80.7932 20.9659 80.9656 20.9659C81.0949 20.9659 81.2009 20.9593 81.2838 20.946C81.3666 20.9295 81.4329 20.9162 81.4826 20.9062L81.7213 21.9602C81.6417 21.9901 81.5307 22.0199 81.3882 22.0497C81.2457 22.0829 81.065 22.0994 80.8463 22.0994C80.5148 22.0994 80.19 22.0282 79.8718 21.8857C79.557 21.7431 79.2951 21.526 79.0863 21.2344C78.8808 20.9427 78.7781 20.5748 78.7781 20.1307V12.5341ZM83.067 22V14.3636H84.2403V22H83.067ZM83.6636 13.0909C83.4349 13.0909 83.2377 13.013 83.072 12.8572C82.9096 12.7015 82.8284 12.5142 82.8284 12.2955C82.8284 12.0767 82.9096 11.8894 83.072 11.7337C83.2377 11.5779 83.4349 11.5 83.6636 11.5C83.8923 11.5 84.0878 11.5779 84.2502 11.7337C84.4159 11.8894 84.4988 12.0767 84.4988 12.2955C84.4988 12.5142 84.4159 12.7015 84.2502 12.8572C84.0878 13.013 83.8923 13.0909 83.6636 13.0909ZM89.2115 22.1591C88.5221 22.1591 87.9173 21.995 87.3969 21.6669C86.8798 21.3388 86.4755 20.8797 86.1838 20.2898C85.8955 19.6998 85.7513 19.0104 85.7513 18.2216C85.7513 17.4261 85.8955 16.7318 86.1838 16.1385C86.4755 15.5452 86.8798 15.0845 87.3969 14.7564C87.9173 14.4283 88.5221 14.2642 89.2115 14.2642C89.9009 14.2642 90.5041 14.4283 91.0212 14.7564C91.5415 15.0845 91.9459 15.5452 92.2343 16.1385C92.5259 16.7318 92.6718 17.4261 92.6718 18.2216C92.6718 19.0104 92.5259 19.6998 92.2343 20.2898C91.9459 20.8797 91.5415 21.3388 91.0212 21.6669C90.5041 21.995 89.9009 22.1591 89.2115 22.1591ZM89.2115 21.1051C89.7352 21.1051 90.1661 20.9709 90.5041 20.7024C90.8422 20.4339 91.0924 20.081 91.2548 19.6435C91.4173 19.206 91.4985 18.732 91.4985 18.2216C91.4985 17.7112 91.4173 17.2356 91.2548 16.7947C91.0924 16.3539 90.8422 15.9976 90.5041 15.7259C90.1661 15.4541 89.7352 15.3182 89.2115 15.3182C88.6879 15.3182 88.257 15.4541 87.9189 15.7259C87.5808 15.9976 87.3306 16.3539 87.1682 16.7947C87.0058 17.2356 86.9246 17.7112 86.9246 18.2216C86.9246 18.732 87.0058 19.206 87.1682 19.6435C87.3306 20.081 87.5808 20.4339 87.9189 20.7024C88.257 20.9709 88.6879 21.1051 89.2115 21.1051ZM95.3561 17.4062V22H94.1828V14.3636H95.3163V15.5568H95.4157C95.5947 15.169 95.8665 14.8575 96.2311 14.6222C96.5956 14.3835 97.0663 14.2642 97.643 14.2642C98.16 14.2642 98.6125 14.3703 99.0002 14.5824C99.388 14.7912 99.6896 15.1094 99.9051 15.5369C100.121 15.9612 100.228 16.4981 100.228 17.1477V22H99.0549V17.2273C99.0549 16.6274 98.8992 16.16 98.5876 15.8253C98.276 15.4872 97.8485 15.3182 97.3049 15.3182C96.9304 15.3182 96.5956 15.3994 96.3007 15.5618C96.009 15.7242 95.7787 15.9612 95.6096 16.2727C95.4406 16.5843 95.3561 16.9621 95.3561 17.4062ZM109.051 22H105.909V11.8182H109.19C110.178 11.8182 111.023 12.022 111.726 12.4297C112.428 12.834 112.967 13.4157 113.341 14.1747C113.716 14.9304 113.903 15.8352 113.903 16.8892C113.903 17.9498 113.714 18.8629 113.336 19.6286C112.959 20.3909 112.408 20.9775 111.686 21.3885C110.963 21.7962 110.085 22 109.051 22ZM107.142 20.9062H108.971C109.813 20.9062 110.511 20.7438 111.064 20.419C111.618 20.0942 112.03 19.6319 112.302 19.032C112.574 18.4321 112.71 17.7178 112.71 16.8892C112.71 16.0672 112.576 15.3596 112.307 14.7663C112.039 14.1697 111.638 13.7124 111.104 13.3942C110.571 13.0727 109.906 12.9119 109.111 12.9119H107.142V20.9062ZM118.734 22.1591C117.998 22.1591 117.363 21.9967 116.83 21.6719C116.3 21.3438 115.89 20.8864 115.602 20.2997C115.317 19.7098 115.174 19.0237 115.174 18.2415C115.174 17.4593 115.317 16.7699 115.602 16.1733C115.89 15.5734 116.291 15.1061 116.805 14.7713C117.322 14.4332 117.925 14.2642 118.615 14.2642C119.012 14.2642 119.405 14.3305 119.793 14.4631C120.181 14.5956 120.534 14.8111 120.852 15.1094C121.17 15.4044 121.424 15.7955 121.612 16.2827C121.801 16.7699 121.896 17.3698 121.896 18.0824V18.5795H116.009V17.5653H120.703C120.703 17.1345 120.617 16.75 120.444 16.4119C120.275 16.0739 120.033 15.8071 119.718 15.6115C119.407 15.416 119.039 15.3182 118.615 15.3182C118.147 15.3182 117.743 15.4342 117.402 15.6662C117.063 15.8949 116.803 16.1932 116.621 16.5611C116.439 16.929 116.348 17.3234 116.348 17.7443V18.4205C116.348 18.9972 116.447 19.486 116.646 19.8871C116.848 20.2848 117.128 20.5881 117.486 20.7969C117.844 21.0024 118.26 21.1051 118.734 21.1051C119.042 21.1051 119.321 21.062 119.569 20.9759C119.821 20.8864 120.038 20.7538 120.22 20.5781C120.403 20.3991 120.544 20.1771 120.643 19.9119L121.777 20.2301C121.657 20.6146 121.457 20.9527 121.175 21.2443C120.893 21.5327 120.545 21.758 120.131 21.9205C119.717 22.0795 119.251 22.1591 118.734 22.1591ZM126.722 14.3636V15.358H122.764V14.3636H126.722ZM123.918 12.5341H125.091V19.8125C125.091 20.1439 125.139 20.3925 125.235 20.5582C125.335 20.7206 125.461 20.83 125.613 20.8864C125.769 20.9394 125.933 20.9659 126.105 20.9659C126.234 20.9659 126.341 20.9593 126.423 20.946C126.506 20.9295 126.573 20.9162 126.622 20.9062L126.861 21.9602C126.781 21.9901 126.67 22.0199 126.528 22.0497C126.385 22.0829 126.205 22.0994 125.986 22.0994C125.654 22.0994 125.33 22.0282 125.011 21.8857C124.697 21.7431 124.435 21.526 124.226 21.2344C124.02 20.9427 123.918 20.5748 123.918 20.1307V12.5341ZM130.454 22.179C129.97 22.179 129.531 22.0878 129.136 21.9055C128.742 21.7199 128.429 21.4531 128.197 21.1051C127.965 20.7538 127.849 20.3295 127.849 19.8324C127.849 19.3949 127.935 19.0402 128.107 18.7685C128.28 18.4934 128.51 18.2779 128.798 18.1222C129.087 17.9664 129.405 17.8504 129.753 17.7741C130.104 17.6946 130.457 17.6316 130.812 17.5852C131.276 17.5256 131.652 17.4808 131.94 17.451C132.232 17.4179 132.444 17.3632 132.577 17.2869C132.713 17.2107 132.78 17.0781 132.78 16.8892V16.8494C132.78 16.3589 132.646 15.9777 132.378 15.706C132.113 15.4342 131.71 15.2983 131.17 15.2983C130.61 15.2983 130.17 15.4209 129.852 15.6662C129.534 15.9115 129.31 16.1733 129.181 16.4517L128.067 16.054C128.266 15.59 128.531 15.2287 128.863 14.9702C129.198 14.7083 129.562 14.526 129.957 14.4233C130.354 14.3172 130.745 14.2642 131.13 14.2642C131.375 14.2642 131.657 14.294 131.975 14.3537C132.297 14.41 132.606 14.5277 132.905 14.7067C133.206 14.8857 133.457 15.1558 133.655 15.517C133.854 15.8783 133.954 16.3622 133.954 16.9688V22H132.78V20.9659H132.721C132.641 21.1316 132.509 21.3089 132.323 21.4979C132.137 21.6868 131.891 21.8475 131.582 21.9801C131.274 22.1127 130.898 22.179 130.454 22.179ZM130.633 21.125C131.097 21.125 131.488 21.0339 131.806 20.8516C132.128 20.6693 132.369 20.4339 132.532 20.1456C132.698 19.8572 132.78 19.554 132.78 19.2358V18.1619C132.731 18.2216 132.621 18.2763 132.452 18.326C132.287 18.3724 132.094 18.4138 131.876 18.4503C131.66 18.4834 131.45 18.5133 131.244 18.5398C131.042 18.563 130.878 18.5829 130.752 18.5994C130.447 18.6392 130.162 18.7038 129.897 18.7933C129.635 18.8795 129.423 19.0104 129.261 19.1861C129.101 19.3584 129.022 19.5937 129.022 19.892C129.022 20.2997 129.173 20.608 129.474 20.8168C129.779 21.0223 130.165 21.125 130.633 21.125ZM135.815 22V14.3636H136.989V22H135.815ZM136.412 13.0909C136.183 13.0909 135.986 13.013 135.82 12.8572C135.658 12.7015 135.577 12.5142 135.577 12.2955C135.577 12.0767 135.658 11.8894 135.82 11.7337C135.986 11.5779 136.183 11.5 136.412 11.5C136.641 11.5 136.836 11.5779 136.999 11.7337C137.164 11.8894 137.247 12.0767 137.247 12.2955C137.247 12.5142 137.164 12.7015 136.999 12.8572C136.836 13.013 136.641 13.0909 136.412 13.0909ZM140.031 11.8182V22H138.858V11.8182H140.031ZM147.309 16.0739L146.255 16.3722C146.189 16.1965 146.091 16.0258 145.962 15.8601C145.836 15.6911 145.663 15.5518 145.445 15.4425C145.226 15.3331 144.946 15.2784 144.604 15.2784C144.137 15.2784 143.748 15.3861 143.436 15.6016C143.128 15.8137 142.974 16.0838 142.974 16.4119C142.974 16.7036 143.08 16.9339 143.292 17.103C143.504 17.272 143.835 17.4129 144.286 17.5256L145.42 17.804C146.102 17.9697 146.611 18.2232 146.946 18.5646C147.281 18.9027 147.448 19.3385 147.448 19.8722C147.448 20.3097 147.322 20.7008 147.07 21.0455C146.822 21.3902 146.474 21.6619 146.026 21.8608C145.579 22.0597 145.058 22.1591 144.465 22.1591C143.686 22.1591 143.042 21.9901 142.531 21.652C142.021 21.3139 141.698 20.8201 141.562 20.1705L142.675 19.892C142.781 20.303 142.982 20.6113 143.277 20.8168C143.575 21.0223 143.965 21.125 144.445 21.125C144.992 21.125 145.426 21.009 145.748 20.777C146.073 20.5417 146.235 20.2599 146.235 19.9318C146.235 19.6667 146.142 19.4446 145.957 19.2656C145.771 19.0833 145.486 18.9474 145.102 18.858L143.829 18.5597C143.129 18.3939 142.616 18.1371 142.288 17.7891C141.963 17.4377 141.8 16.9986 141.8 16.4716C141.8 16.0407 141.921 15.6596 142.163 15.3281C142.409 14.9967 142.742 14.7365 143.163 14.5476C143.587 14.3587 144.067 14.2642 144.604 14.2642C145.36 14.2642 145.953 14.4299 146.384 14.7614C146.818 15.0928 147.127 15.5303 147.309 16.0739Z" fill="#777672"/>
<path d="M4.66667 24.5005C6.00483 19.8105 6.98017 15.1357 7 10.5005H14C14.0198 15.1357 14.9952 19.8105 16.3333 24.5005M14.5833 15.1672H19.8333C19.8625 18.2145 20.8763 21.3458 22.1667 24.5005M10.5 5.8333C10.765 5.46406 11.116 5.16488 11.5225 4.96162C11.929 4.75836 12.3789 4.65711 12.8333 4.66663C13.2877 4.65711 13.7376 4.75836 14.1442 4.96162C14.5507 5.16488 14.9016 5.46406 15.1667 5.8333C15.4317 6.20254 15.7826 6.50171 16.1892 6.70497C16.5957 6.90824 17.0456 7.00948 17.5 6.99996C17.9544 7.00948 18.4043 6.90824 18.8108 6.70497C19.2174 6.50171 19.5683 6.20254 19.8333 5.8333C20.0984 5.46406 20.4493 5.16488 20.8558 4.96162C21.2624 4.75836 21.7123 4.65711 22.1667 4.66663C22.6211 4.65711 23.071 4.75836 23.4775 4.96162C23.884 5.16488 24.235 5.46406 24.5 5.8333M3.5 24.5005H25.6667" stroke="#D9AA0F" stroke-width="2" stroke-linecap="round" stroke-linejoin="round"/>
</svg>
