<svg width="137" height="32" viewBox="0 0 137 32" fill="none" xmlns="http://www.w3.org/2000/svg">
<path d="M32.8849 22V11.8182H39.7457V13.593H35.0376V16.0192H39.3928V17.794H35.0376V20.2251H39.7656V22H32.8849ZM42.9073 14.3636L44.3093 17.0334L45.7461 14.3636H47.9187L45.7063 18.1818L47.9783 22H45.8157L44.3093 19.3601L42.8278 22H40.6403L42.9073 18.1818L40.7198 14.3636H42.9073ZM52.1032 22.1491C51.3177 22.1491 50.6415 21.9901 50.0748 21.6719C49.5113 21.3504 49.0771 20.8963 48.7722 20.3097C48.4673 19.7197 48.3148 19.022 48.3148 18.2166C48.3148 17.4311 48.4673 16.7417 48.7722 16.1484C49.0771 15.5552 49.5063 15.0928 50.0599 14.7614C50.6167 14.4299 51.2696 14.2642 52.0187 14.2642C52.5224 14.2642 52.9914 14.3454 53.4256 14.5078C53.8631 14.6669 54.2443 14.9072 54.5691 15.2287C54.8972 15.5502 55.1524 15.9545 55.3347 16.4418C55.517 16.9257 55.6081 17.4924 55.6081 18.142V18.7237H49.16V17.4112H53.6145C53.6145 17.1063 53.5483 16.8362 53.4157 16.6009C53.2831 16.3655 53.0991 16.1816 52.8638 16.049C52.6318 15.9131 52.3617 15.8452 52.0535 15.8452C51.732 15.8452 51.4469 15.9197 51.1983 16.0689C50.9531 16.2147 50.7608 16.4119 50.6216 16.6605C50.4824 16.9058 50.4112 17.1792 50.4079 17.4808V18.7287C50.4079 19.1065 50.4775 19.433 50.6167 19.7081C50.7592 19.9832 50.9597 20.1953 51.2182 20.3445C51.4768 20.4936 51.7833 20.5682 52.138 20.5682C52.3733 20.5682 52.5887 20.535 52.7843 20.4688C52.9798 20.4025 53.1472 20.303 53.2864 20.1705C53.4256 20.0379 53.5317 19.8755 53.6046 19.6832L55.5634 19.8125C55.464 20.2831 55.2601 20.6941 54.9519 21.0455C54.647 21.3935 54.2526 21.6652 53.7687 21.8608C53.2881 22.053 52.7329 22.1491 52.1032 22.1491ZM60.1605 22.1491C59.3783 22.1491 58.7055 21.9834 58.1421 21.652C57.5819 21.3172 57.1511 20.8532 56.8495 20.2599C56.5512 19.6667 56.402 18.9839 56.402 18.2116C56.402 17.4295 56.5528 16.7434 56.8544 16.1534C57.1593 15.5601 57.5919 15.0978 58.152 14.7663C58.7121 14.4316 59.3783 14.2642 60.1506 14.2642C60.8168 14.2642 61.4001 14.3852 61.9006 14.6271C62.4011 14.8691 62.7971 15.2088 63.0888 15.6463C63.3805 16.0838 63.5412 16.5975 63.571 17.1875H61.5725C61.5161 16.8063 61.367 16.4998 61.125 16.2678C60.8864 16.0324 60.5732 15.9148 60.1854 15.9148C59.8573 15.9148 59.5706 16.0043 59.3253 16.1832C59.0834 16.3589 58.8944 16.6158 58.7585 16.9538C58.6227 17.2919 58.5547 17.7012 58.5547 18.1818C58.5547 18.669 58.621 19.0833 58.7536 19.4247C58.8895 19.7661 59.08 20.0263 59.3253 20.2053C59.5706 20.3842 59.8573 20.4737 60.1854 20.4737C60.4273 20.4737 60.6444 20.424 60.8367 20.3246C61.0322 20.2251 61.193 20.081 61.3189 19.892C61.4482 19.6998 61.5327 19.4695 61.5725 19.201H63.571C63.5379 19.7843 63.3788 20.2981 63.0938 20.7422C62.812 21.183 62.4226 21.5277 61.9254 21.7763C61.4283 22.0249 60.84 22.1491 60.1605 22.1491ZM69.5441 18.7486V14.3636H71.662V22H69.6286V20.6129H69.549C69.3767 21.0604 69.09 21.42 68.6889 21.6918C68.2912 21.9635 67.8057 22.0994 67.2323 22.0994C66.7219 22.0994 66.2728 21.9834 65.885 21.7514C65.4972 21.5194 65.1939 21.1896 64.9752 20.7621C64.7597 20.3345 64.6504 19.8224 64.647 19.2259V14.3636H66.7649V18.848C66.7683 19.2988 66.8892 19.6551 67.1279 19.9169C67.3665 20.1787 67.6863 20.3097 68.0874 20.3097C68.3426 20.3097 68.5812 20.2517 68.8033 20.1357C69.0254 20.0163 69.2043 19.8407 69.3402 19.6087C69.4794 19.3767 69.5474 19.09 69.5441 18.7486ZM77.1378 14.3636V15.9545H72.5391V14.3636H77.1378ZM73.5831 12.5341H75.701V19.6534C75.701 19.849 75.7309 20.0014 75.7905 20.1108C75.8502 20.2169 75.933 20.2914 76.0391 20.3345C76.1485 20.3776 76.2744 20.3991 76.4169 20.3991C76.5164 20.3991 76.6158 20.3909 76.7152 20.3743C76.8147 20.3544 76.8909 20.3395 76.9439 20.3295L77.277 21.9055C77.171 21.9387 77.0218 21.9768 76.8296 22.0199C76.6373 22.0663 76.4037 22.0945 76.1286 22.1044C75.6182 22.1243 75.1707 22.0563 74.7863 21.9006C74.4051 21.7448 74.1085 21.5028 73.8963 21.1747C73.6842 20.8466 73.5798 20.4323 73.5831 19.9318V12.5341ZM78.2374 22V14.3636H80.3553V22H78.2374ZM79.3014 13.3793C78.9865 13.3793 78.7164 13.2749 78.491 13.0661C78.2689 12.8539 78.1579 12.6004 78.1579 12.3054C78.1579 12.0137 78.2689 11.7635 78.491 11.5547C78.7164 11.3426 78.9865 11.2365 79.3014 11.2365C79.6162 11.2365 79.8847 11.3426 80.1068 11.5547C80.3321 11.7635 80.4448 12.0137 80.4448 12.3054C80.4448 12.6004 80.3321 12.8539 80.1068 13.0661C79.8847 13.2749 79.6162 13.3793 79.3014 13.3793ZM88.8912 14.3636L86.2215 22H83.8351L81.1654 14.3636H83.4026L84.9885 19.8274H85.0681L86.649 14.3636H88.8912ZM92.929 22.1491C92.1435 22.1491 91.4674 21.9901 90.9006 21.6719C90.3372 21.3504 89.903 20.8963 89.5981 20.3097C89.2931 19.7197 89.1407 19.022 89.1407 18.2166C89.1407 17.4311 89.2931 16.7417 89.5981 16.1484C89.903 15.5552 90.3322 15.0928 90.8857 14.7614C91.4425 14.4299 92.0955 14.2642 92.8445 14.2642C93.3483 14.2642 93.8173 14.3454 94.2515 14.5078C94.689 14.6669 95.0701 14.9072 95.3949 15.2287C95.7231 15.5502 95.9783 15.9545 96.1606 16.4418C96.3429 16.9257 96.434 17.4924 96.434 18.142V18.7237H89.9859V17.4112H94.4404C94.4404 17.1063 94.3741 16.8362 94.2415 16.6009C94.109 16.3655 93.925 16.1816 93.6897 16.049C93.4577 15.9131 93.1876 15.8452 92.8793 15.8452C92.5578 15.8452 92.2728 15.9197 92.0242 16.0689C91.7789 16.2147 91.5867 16.4119 91.4475 16.6605C91.3083 16.9058 91.237 17.1792 91.2337 17.4808V18.7287C91.2337 19.1065 91.3033 19.433 91.4425 19.7081C91.585 19.9832 91.7856 20.1953 92.0441 20.3445C92.3026 20.4936 92.6092 20.5682 92.9638 20.5682C93.1992 20.5682 93.4146 20.535 93.6101 20.4688C93.8057 20.4025 93.9731 20.303 94.1123 20.1705C94.2515 20.0379 94.3575 19.8755 94.4305 19.6832L96.3893 19.8125C96.2898 20.2831 96.086 20.6941 95.7778 21.0455C95.4728 21.3935 95.0784 21.6652 94.5945 21.8608C94.1139 22.053 93.5588 22.1491 92.929 22.1491ZM102.376 11.8182L104.837 19.554H104.931L107.397 11.8182H109.783L106.273 22H103.499L99.9843 11.8182H102.376ZM110.689 22V14.3636H112.807V22H110.689ZM111.753 13.3793C111.438 13.3793 111.168 13.2749 110.943 13.0661C110.72 12.8539 110.609 12.6004 110.609 12.3054C110.609 12.0137 110.72 11.7635 110.943 11.5547C111.168 11.3426 111.438 11.2365 111.753 11.2365C112.068 11.2365 112.336 11.3426 112.558 11.5547C112.784 11.7635 112.896 12.0137 112.896 12.3054C112.896 12.6004 112.784 12.8539 112.558 13.0661C112.336 13.2749 112.068 13.3793 111.753 13.3793ZM117.704 22.1491C116.918 22.1491 116.242 21.9901 115.675 21.6719C115.112 21.3504 114.678 20.8963 114.373 20.3097C114.068 19.7197 113.915 19.022 113.915 18.2166C113.915 17.4311 114.068 16.7417 114.373 16.1484C114.678 15.5552 115.107 15.0928 115.66 14.7614C116.217 14.4299 116.87 14.2642 117.619 14.2642C118.123 14.2642 118.592 14.3454 119.026 14.5078C119.464 14.6669 119.845 14.9072 120.169 15.2287C120.498 15.5502 120.753 15.9545 120.935 16.4418C121.117 16.9257 121.209 17.4924 121.209 18.142V18.7237H114.76V17.4112H119.215C119.215 17.1063 119.149 16.8362 119.016 16.6009C118.883 16.3655 118.7 16.1816 118.464 16.049C118.232 15.9131 117.962 15.8452 117.654 15.8452C117.332 15.8452 117.047 15.9197 116.799 16.0689C116.553 16.2147 116.361 16.4119 116.222 16.6605C116.083 16.9058 116.012 17.1792 116.008 17.4808V18.7287C116.008 19.1065 116.078 19.433 116.217 19.7081C116.36 19.9832 116.56 20.1953 116.819 20.3445C117.077 20.4936 117.384 20.5682 117.738 20.5682C117.974 20.5682 118.189 20.535 118.385 20.4688C118.58 20.4025 118.748 20.303 118.887 20.1705C119.026 20.0379 119.132 19.8755 119.205 19.6832L121.164 19.8125C121.064 20.2831 120.861 20.6941 120.552 21.0455C120.247 21.3935 119.853 21.6652 119.369 21.8608C118.888 22.053 118.333 22.1491 117.704 22.1491ZM123.762 22L121.684 14.3636H123.827L125.01 19.4943H125.08L126.313 14.3636H128.416L129.669 19.4645H129.733L130.897 14.3636H133.034L130.961 22H128.719L127.407 17.1974H127.312L126 22H123.762Z" fill="#625118"/>
<path d="M8.9712 9.48439C8.91822 9.44725 8.85508 9.42732 8.79037 9.42732C8.72566 9.42732 8.66252 9.44725 8.60954 9.48439C8.14287 9.79939 8.78454 12.3311 9.22787 12.6811C9.28198 12.7153 9.34468 12.7334 9.4087 12.7334C9.47272 12.7334 9.53543 12.7153 9.58954 12.6811C9.64787 12.8677 9.71787 13.0544 9.79954 13.2294C10.1256 13.944 10.5161 14.6273 10.9662 15.2711C11.3147 15.7496 11.7615 16.1481 12.2766 16.4399C12.7917 16.7316 13.3632 16.9099 13.9529 16.9627C14.6065 16.9859 15.2535 16.8255 15.8205 16.4997C16.3876 16.1739 16.8521 15.6957 17.1612 15.1194L17.4062 14.7694C17.6783 14.3232 17.9125 13.8548 18.1062 13.3694C18.1762 13.2061 18.2345 13.0194 18.2812 12.8444C18.3291 12.85 18.3777 12.8457 18.4239 12.8316C18.4701 12.8176 18.5129 12.7941 18.5495 12.7627C18.9929 12.4244 19.6345 9.88106 19.1679 9.56606C19.1261 9.53178 19.077 9.50762 19.0244 9.49548C18.9718 9.48334 18.9171 9.48353 18.8645 9.49606C19.0045 8.71439 19.0979 8.25939 19.0979 8.25939C19.7745 4.75939 15.7495 1.76106 12.6112 2.42606C12.0785 2.50768 11.5718 2.71123 11.1306 3.02085C10.6894 3.33047 10.3257 3.73779 10.0679 4.21106C7.73454 4.49106 8.3762 7.40773 8.3762 7.40773L8.9712 9.48439Z" fill="#D9AA0F"/>
<path d="M24.2202 19.3545L18.2702 17.1028C18.2702 17.0328 16.6952 19.9261 15.4468 22.2245C15.4086 20.8886 15.0865 19.5762 14.5018 18.3745H13.3352C12.7368 19.5682 12.4063 20.8781 12.3668 22.2128C11.0952 19.8795 9.49683 17.0795 9.49683 17.1145L3.6635 19.3428C3.6635 19.3428 2.73016 19.3428 2.49683 20.8711C2.4035 21.7345 2.35683 22.6328 2.3335 23.2045C2.33955 23.4642 2.42576 23.7157 2.58031 23.9246C2.73486 24.1334 2.9502 24.2894 3.19683 24.3711C4.55016 24.8378 7.6535 25.5378 13.8835 25.6078C20.1135 25.6778 23.2168 24.8378 24.5702 24.3711C24.8168 24.2894 25.0321 24.1334 25.1867 23.9246C25.3412 23.7157 25.4274 23.4642 25.4335 23.2045C25.4335 22.5745 25.3752 21.6761 25.2702 20.8711C25.1652 19.3078 24.2202 19.3545 24.2202 19.3545Z" fill="#D9AA0F"/>
</svg>
