<svg width="148" height="28" viewBox="0 0 148 28" fill="none" xmlns="http://www.w3.org/2000/svg">
<path d="M32.8849 22V11.8182H39.7457V13.593H35.0376V16.0192H39.3928V17.794H35.0376V20.2251H39.7656V22H32.8849ZM42.9073 14.3636L44.3093 17.0334L45.7461 14.3636H47.9187L45.7063 18.1818L47.9783 22H45.8157L44.3093 19.3601L42.8278 22H40.6403L42.9073 18.1818L40.7198 14.3636H42.9073ZM48.8965 24.8636V14.3636H50.9846V15.6463H51.079C51.1718 15.4408 51.3061 15.232 51.4817 15.0199C51.6607 14.8045 51.8927 14.6255 52.1777 14.483C52.4661 14.3371 52.8241 14.2642 53.2516 14.2642C53.8084 14.2642 54.3222 14.41 54.7928 14.7017C55.2635 14.9901 55.6396 15.4259 55.9214 16.0092C56.2031 16.5893 56.3439 17.3168 56.3439 18.1918C56.3439 19.0436 56.2064 19.7628 55.9313 20.3494C55.6595 20.9328 55.2883 21.3752 54.8177 21.6768C54.3503 21.9751 53.8267 22.1243 53.2466 22.1243C52.8357 22.1243 52.486 22.0563 52.1976 21.9205C51.9126 21.7846 51.6789 21.6139 51.4966 21.4084C51.3143 21.1996 51.1751 20.9891 51.079 20.777H51.0144V24.8636H48.8965ZM50.9697 18.1818C50.9697 18.6359 51.0326 19.032 51.1586 19.37C51.2845 19.7081 51.4668 19.9716 51.7054 20.1605C51.9441 20.3461 52.2341 20.4389 52.5755 20.4389C52.9202 20.4389 53.2118 20.3445 53.4505 20.1555C53.6891 19.9633 53.8697 19.6982 53.9924 19.3601C54.1183 19.0187 54.1813 18.6259 54.1813 18.1818C54.1813 17.741 54.12 17.3532 53.9974 17.0185C53.8747 16.6837 53.6941 16.4219 53.4554 16.233C53.2168 16.044 52.9235 15.9496 52.5755 15.9496C52.2308 15.9496 51.9391 16.0407 51.7005 16.223C51.4652 16.4053 51.2845 16.6638 51.1586 16.9986C51.0326 17.3333 50.9697 17.7277 50.9697 18.1818ZM60.956 22.1491C60.1705 22.1491 59.4943 21.9901 58.9276 21.6719C58.3641 21.3504 57.9299 20.8963 57.625 20.3097C57.3201 19.7197 57.1676 19.022 57.1676 18.2166C57.1676 17.4311 57.3201 16.7417 57.625 16.1484C57.9299 15.5552 58.3592 15.0928 58.9127 14.7614C59.4695 14.4299 60.1224 14.2642 60.8715 14.2642C61.3753 14.2642 61.8442 14.3454 62.2784 14.5078C62.7159 14.6669 63.0971 14.9072 63.4219 15.2287C63.75 15.5502 64.0052 15.9545 64.1875 16.4418C64.3698 16.9257 64.461 17.4924 64.461 18.142V18.7237H58.0128V17.4112H62.4674C62.4674 17.1063 62.4011 16.8362 62.2685 16.6009C62.1359 16.3655 61.952 16.1816 61.7166 16.049C61.4846 15.9131 61.2145 15.8452 60.9063 15.8452C60.5848 15.8452 60.2997 15.9197 60.0512 16.0689C59.8059 16.2147 59.6137 16.4119 59.4745 16.6605C59.3352 16.9058 59.264 17.1792 59.2607 17.4808V18.7287C59.2607 19.1065 59.3303 19.433 59.4695 19.7081C59.612 19.9832 59.8125 20.1953 60.071 20.3445C60.3296 20.4936 60.6361 20.5682 60.9908 20.5682C61.2261 20.5682 61.4415 20.535 61.6371 20.4688C61.8326 20.4025 62 20.303 62.1392 20.1705C62.2784 20.0379 62.3845 19.8755 62.4574 19.6832L64.4162 19.8125C64.3168 20.2831 64.1129 20.6941 63.8047 21.0455C63.4998 21.3935 63.1054 21.6652 62.6215 21.8608C62.1409 22.053 61.5857 22.1491 60.956 22.1491ZM67.681 17.5852V22H65.5631V14.3636H67.5815V15.7109H67.671C67.8401 15.2668 68.1234 14.9155 68.5212 14.657C68.9189 14.3951 69.4011 14.2642 69.9679 14.2642C70.4982 14.2642 70.9606 14.3802 71.355 14.6122C71.7494 14.8442 72.056 15.1757 72.2747 15.6065C72.4935 16.0341 72.6028 16.5445 72.6028 17.1378V22H70.4849V17.5156C70.4883 17.0483 70.3689 16.6837 70.127 16.4219C69.885 16.1567 69.5519 16.0241 69.1277 16.0241C68.8427 16.0241 68.5908 16.0855 68.372 16.2081C68.1566 16.3307 67.9875 16.5097 67.8649 16.745C67.7456 16.977 67.6843 17.2571 67.681 17.5852ZM80.3457 16.5412L78.4068 16.6605C78.3737 16.4948 78.3024 16.3456 78.193 16.2131C78.0837 16.0772 77.9395 15.9695 77.7605 15.8899C77.5848 15.8071 77.3744 15.7656 77.1291 15.7656C76.801 15.7656 76.5242 15.8352 76.2989 15.9744C76.0735 16.1103 75.9608 16.2926 75.9608 16.5213C75.9608 16.7036 76.0337 16.8577 76.1795 16.9837C76.3254 17.1096 76.5756 17.2107 76.9303 17.2869L78.3124 17.5653C79.0548 17.7178 79.6083 17.9631 79.9729 18.3011C80.3375 18.6392 80.5197 19.0833 80.5197 19.6335C80.5197 20.134 80.3723 20.5732 80.0773 20.951C79.7856 21.3288 79.3846 21.6238 78.8741 21.8359C78.367 22.0447 77.7821 22.1491 77.1192 22.1491C76.1083 22.1491 75.3029 21.9387 74.703 21.5178C74.1064 21.0935 73.7567 20.5168 73.654 19.7876L75.7371 19.6783C75.8 19.9865 75.9525 20.2218 76.1945 20.3842C76.4364 20.5433 76.7463 20.6229 77.1241 20.6229C77.4954 20.6229 77.7937 20.5516 78.019 20.4091C78.2477 20.2633 78.3637 20.076 78.367 19.8473C78.3637 19.6551 78.2825 19.4976 78.1234 19.375C77.9643 19.2491 77.7191 19.1529 77.3876 19.0866L76.0652 18.8232C75.3195 18.674 74.7643 18.4155 74.3997 18.0476C74.0384 17.6797 73.8578 17.2107 73.8578 16.6406C73.8578 16.1501 73.9904 15.7275 74.2555 15.3729C74.524 15.0182 74.9002 14.7448 75.3841 14.5526C75.8713 14.3603 76.4414 14.2642 77.0943 14.2642C78.0588 14.2642 78.8178 14.468 79.3713 14.8757C79.9281 15.2834 80.2529 15.8385 80.3457 16.5412ZM85.0535 22.1491C84.268 22.1491 83.5918 21.9901 83.0251 21.6719C82.4616 21.3504 82.0274 20.8963 81.7225 20.3097C81.4176 19.7197 81.2651 19.022 81.2651 18.2166C81.2651 17.4311 81.4176 16.7417 81.7225 16.1484C82.0274 15.5552 82.4567 15.0928 83.0102 14.7614C83.567 14.4299 84.2199 14.2642 84.969 14.2642C85.4728 14.2642 85.9417 14.3454 86.3759 14.5078C86.8134 14.6669 87.1946 14.9072 87.5194 15.2287C87.8475 15.5502 88.1027 15.9545 88.285 16.4418C88.4673 16.9257 88.5585 17.4924 88.5585 18.142V18.7237H82.1103V17.4112H86.5649C86.5649 17.1063 86.4986 16.8362 86.366 16.6009C86.2334 16.3655 86.0495 16.1816 85.8141 16.049C85.5821 15.9131 85.312 15.8452 85.0038 15.8452C84.6823 15.8452 84.3972 15.9197 84.1487 16.0689C83.9034 16.2147 83.7112 16.4119 83.572 16.6605C83.4327 16.9058 83.3615 17.1792 83.3582 17.4808V18.7287C83.3582 19.1065 83.4278 19.433 83.567 19.7081C83.7095 19.9832 83.91 20.1953 84.1685 20.3445C84.4271 20.4936 84.7336 20.5682 85.0883 20.5682C85.3236 20.5682 85.539 20.535 85.7346 20.4688C85.9301 20.4025 86.0975 20.303 86.2367 20.1705C86.3759 20.0379 86.482 19.8755 86.5549 19.6832L88.5137 19.8125C88.4143 20.2831 88.2104 20.6941 87.9022 21.0455C87.5973 21.3935 87.2029 21.6652 86.719 21.8608C86.2384 22.053 85.6832 22.1491 85.0535 22.1491ZM96.2699 22H92.6606V11.8182H96.2998C97.3239 11.8182 98.2055 12.022 98.9447 12.4297C99.6838 12.834 100.252 13.4157 100.65 14.1747C101.051 14.9337 101.251 15.8419 101.251 16.8991C101.251 17.9598 101.051 18.8712 100.65 19.6335C100.252 20.3958 99.6805 20.9808 98.9347 21.3885C98.1923 21.7962 97.304 22 96.2699 22ZM94.8133 20.1555H96.1805C96.8168 20.1555 97.3521 20.0429 97.7863 19.8175C98.2238 19.5888 98.5519 19.2358 98.7707 18.7585C98.9927 18.2779 99.1037 17.6581 99.1037 16.8991C99.1037 16.1468 98.9927 15.532 98.7707 15.0547C98.5519 14.5774 98.2254 14.2261 97.7912 14.0007C97.3571 13.7753 96.8218 13.6626 96.1854 13.6626H94.8133V20.1555ZM106.006 22.1491C105.221 22.1491 104.545 21.9901 103.978 21.6719C103.415 21.3504 102.98 20.8963 102.675 20.3097C102.371 19.7197 102.218 19.022 102.218 18.2166C102.218 17.4311 102.371 16.7417 102.675 16.1484C102.98 15.5552 103.41 15.0928 103.963 14.7614C104.52 14.4299 105.173 14.2642 105.922 14.2642C106.426 14.2642 106.895 14.3454 107.329 14.5078C107.766 14.6669 108.148 14.9072 108.472 15.2287C108.8 15.5502 109.056 15.9545 109.238 16.4418C109.42 16.9257 109.511 17.4924 109.511 18.142V18.7237H103.063V17.4112H107.518C107.518 17.1063 107.452 16.8362 107.319 16.6009C107.186 16.3655 107.002 16.1816 106.767 16.049C106.535 15.9131 106.265 15.8452 105.957 15.8452C105.635 15.8452 105.35 15.9197 105.102 16.0689C104.856 16.2147 104.664 16.4119 104.525 16.6605C104.386 16.9058 104.314 17.1792 104.311 17.4808V18.7287C104.311 19.1065 104.381 19.433 104.52 19.7081C104.662 19.9832 104.863 20.1953 105.122 20.3445C105.38 20.4936 105.687 20.5682 106.041 20.5682C106.277 20.5682 106.492 20.535 106.688 20.4688C106.883 20.4025 107.05 20.303 107.19 20.1705C107.329 20.0379 107.435 19.8755 107.508 19.6832L109.467 19.8125C109.367 20.2831 109.163 20.6941 108.855 21.0455C108.55 21.3935 108.156 21.6652 107.672 21.8608C107.191 22.053 106.636 22.1491 106.006 22.1491ZM114.675 14.3636V15.9545H110.077V14.3636H114.675ZM111.121 12.5341H113.239V19.6534C113.239 19.849 113.268 20.0014 113.328 20.1108C113.388 20.2169 113.471 20.2914 113.577 20.3345C113.686 20.3776 113.812 20.3991 113.954 20.3991C114.054 20.3991 114.153 20.3909 114.253 20.3743C114.352 20.3544 114.428 20.3395 114.481 20.3295L114.815 21.9055C114.708 21.9387 114.559 21.9768 114.367 22.0199C114.175 22.0663 113.941 22.0945 113.666 22.1044C113.156 22.1243 112.708 22.0563 112.324 21.9006C111.943 21.7448 111.646 21.5028 111.434 21.1747C111.222 20.8466 111.117 20.4323 111.121 19.9318V12.5341ZM117.952 22.1442C117.465 22.1442 117.031 22.0597 116.65 21.8906C116.269 21.7183 115.967 21.4647 115.745 21.13C115.526 20.7919 115.417 20.371 115.417 19.8672C115.417 19.4429 115.495 19.0866 115.651 18.7983C115.806 18.5099 116.019 18.2779 116.287 18.1023C116.555 17.9266 116.86 17.794 117.202 17.7045C117.546 17.6151 117.908 17.5521 118.286 17.5156C118.73 17.4692 119.088 17.4261 119.359 17.3864C119.631 17.3433 119.828 17.2803 119.951 17.1974C120.074 17.1146 120.135 16.992 120.135 16.8295V16.7997C120.135 16.4848 120.036 16.2412 119.837 16.0689C119.641 15.8965 119.363 15.8104 119.001 15.8104C118.62 15.8104 118.317 15.8949 118.092 16.0639C117.866 16.2296 117.717 16.4384 117.644 16.6903L115.685 16.5312C115.785 16.0672 115.98 15.6662 116.272 15.3281C116.564 14.9867 116.94 14.7249 117.401 14.5426C117.865 14.357 118.402 14.2642 119.011 14.2642C119.436 14.2642 119.842 14.3139 120.229 14.4134C120.621 14.5128 120.967 14.6669 121.269 14.8757C121.573 15.0845 121.814 15.353 121.989 15.6811C122.165 16.0059 122.253 16.3954 122.253 16.8494V22H120.244V20.9411H120.185C120.062 21.1797 119.898 21.3902 119.693 21.5724C119.487 21.7514 119.24 21.8923 118.952 21.995C118.663 22.0945 118.33 22.1442 117.952 22.1442ZM118.559 20.6825C118.871 20.6825 119.146 20.6212 119.384 20.4986C119.623 20.3726 119.81 20.2036 119.946 19.9915C120.082 19.7794 120.15 19.5391 120.15 19.2706V18.4602C120.084 18.5033 119.993 18.5431 119.876 18.5795C119.764 18.6127 119.636 18.6442 119.494 18.674C119.351 18.7005 119.209 18.7254 119.066 18.7486C118.924 18.7685 118.794 18.7867 118.678 18.8033C118.43 18.8397 118.213 18.8977 118.027 18.9773C117.841 19.0568 117.697 19.1645 117.595 19.3004C117.492 19.433 117.44 19.5987 117.44 19.7976C117.44 20.0859 117.545 20.3063 117.754 20.4588C117.966 20.608 118.234 20.6825 118.559 20.6825ZM123.616 22V14.3636H125.734V22H123.616ZM124.68 13.3793C124.365 13.3793 124.095 13.2749 123.87 13.0661C123.648 12.8539 123.536 12.6004 123.536 12.3054C123.536 12.0137 123.648 11.7635 123.87 11.5547C124.095 11.3426 124.365 11.2365 124.68 11.2365C124.995 11.2365 125.263 11.3426 125.485 11.5547C125.711 11.7635 125.823 12.0137 125.823 12.3054C125.823 12.6004 125.711 12.8539 125.485 13.0661C125.263 13.2749 124.995 13.3793 124.68 13.3793ZM129.268 11.8182V22H127.15V11.8182H129.268ZM137.039 16.5412L135.1 16.6605C135.067 16.4948 134.995 16.3456 134.886 16.2131C134.777 16.0772 134.632 15.9695 134.453 15.8899C134.278 15.8071 134.067 15.7656 133.822 15.7656C133.494 15.7656 133.217 15.8352 132.992 15.9744C132.766 16.1103 132.654 16.2926 132.654 16.5213C132.654 16.7036 132.727 16.8577 132.872 16.9837C133.018 17.1096 133.269 17.2107 133.623 17.2869L135.005 17.5653C135.748 17.7178 136.301 17.9631 136.666 18.3011C137.03 18.6392 137.213 19.0833 137.213 19.6335C137.213 20.134 137.065 20.5732 136.77 20.951C136.478 21.3288 136.077 21.6238 135.567 21.8359C135.06 22.0447 134.475 22.1491 133.812 22.1491C132.801 22.1491 131.996 21.9387 131.396 21.5178C130.799 21.0935 130.45 20.5168 130.347 19.7876L132.43 19.6783C132.493 19.9865 132.645 20.2218 132.887 20.3842C133.129 20.5433 133.439 20.6229 133.817 20.6229C134.188 20.6229 134.487 20.5516 134.712 20.4091C134.941 20.2633 135.057 20.076 135.06 19.8473C135.057 19.6551 134.975 19.4976 134.816 19.375C134.657 19.2491 134.412 19.1529 134.081 19.0866L132.758 18.8232C132.012 18.674 131.457 18.4155 131.093 18.0476C130.731 17.6797 130.551 17.2107 130.551 16.6406C130.551 16.1501 130.683 15.7275 130.948 15.3729C131.217 15.0182 131.593 14.7448 132.077 14.5526C132.564 14.3603 133.134 14.2642 133.787 14.2642C134.752 14.2642 135.511 14.468 136.064 14.8757C136.621 15.2834 136.946 15.8385 137.039 16.5412Z" fill="#625118"/>
<path d="M13.1976 10.4074C13.1976 7.02286 10.685 4.27051 7.59882 4.27051C7.49288 4.27051 7.386 4.27332 7.28101 4.28082C7.27444 4.28176 7.26788 4.28176 7.26038 4.28176C4.32875 4.47395 2 7.14763 2 10.4073C2 13.7919 4.51067 16.5442 7.59879 16.5442C10.685 16.5433 13.1976 13.7907 13.1976 10.4074ZM3.00132 10.3418C3.00132 7.59756 5.0179 5.36457 7.4949 5.36457C9.97365 5.36457 11.9894 7.59773 11.9894 10.3418C11.9894 13.0869 9.97285 15.3199 7.4949 15.3199C5.01694 15.3199 3.00132 13.0867 3.00132 10.3418Z" fill="#D9AA0F"/>
<path d="M7.53063 5.77353H7.495C5.24217 5.77353 3.41016 7.82388 3.41016 10.342C3.41016 11.122 3.58641 11.857 3.89578 12.5001C3.67734 11.9161 3.56016 11.2814 3.56016 10.6261C3.56016 8.09666 5.3059 6.00994 7.53063 5.77353Z" fill="#D9AA0F"/>
<path d="M9.05125 6.11824C8.69687 6.00949 8.32937 5.95605 7.95343 5.95605C5.64434 5.95605 3.76562 8.05234 3.76562 10.6267C3.76562 11.928 4.24282 13.1449 5.07251 14.0177C5.07345 14.0187 5.07439 14.0196 5.07439 14.0196C5.7522 14.5802 6.59034 14.9112 7.49506 14.9112C9.74883 14.9112 11.5806 12.8608 11.5806 10.3418C11.5806 8.43862 10.5344 6.80369 9.05125 6.11824ZM9.75345 11.6525C9.61095 12.8253 8.95189 13.4516 7.77437 13.5237L7.72187 14.2925L7.14341 14.2916L7.19591 13.5219C6.06245 13.4056 5.52338 12.7091 5.5787 11.4425L6.62027 11.4453C6.6137 11.9806 6.82371 12.3106 7.27279 12.4053L7.38716 10.7159C7.31122 10.6962 7.31872 10.6962 7.24279 10.6784C6.23871 10.3549 5.76902 9.77182 5.82715 8.92711C5.93591 7.67929 6.53591 7.03334 7.64217 6.99021L7.69561 6.20176C8.07436 6.20269 8.26 6.40988 8.23281 6.81395L8.22062 6.99208C9.25564 7.08958 9.75813 7.74771 9.73751 8.95898L9.13657 8.9571C8.91157 8.96554 8.76718 8.82397 8.68844 8.50522C8.63031 8.22303 8.44937 8.05335 8.15124 8.00554L8.03499 9.70337C8.3528 9.79806 8.6828 9.93118 9.04281 10.0915C9.61 10.3474 9.84439 10.8743 9.75345 11.6525Z" fill="#D9AA0F"/>
<path d="M6.86548 8.73326C6.84298 9.06139 7.04174 9.31639 7.4683 9.50482L7.57049 8.00293C7.14299 8.06762 6.91797 8.302 6.86548 8.73326Z" fill="#D9AA0F"/>
<path d="M7.95225 10.8965L7.84912 12.4078C8.39194 12.3721 8.67132 12.119 8.69662 11.6409C8.72849 11.1712 8.32915 11.0296 7.95225 10.8965Z" fill="#D9AA0F"/>
<path d="M13.6067 10.4074C13.6067 13.2368 11.951 15.6519 9.64014 16.563C12.1957 15.8767 14.0924 13.4252 14.0924 10.5123C14.0924 8.1741 12.8699 6.13221 11.0643 5.06348C12.6018 6.24943 13.6067 8.20223 13.6067 10.4074Z" fill="#D9AA0F"/>
<path d="M17.3862 21.6228V19.3887H4.11768V21.6228C4.11768 23.3562 5.52769 24.7654 7.26027 24.7654C7.26777 24.7654 7.27433 24.7654 7.28183 24.7663H19.2885C18.1578 24.1719 17.3862 22.986 17.3862 21.6228Z" fill="#D9AA0F"/>
<path d="M19.3545 12.1521C19.2917 12.1521 19.2327 12.1249 19.1942 12.0743C19.1483 12.0171 19.137 11.9402 19.1642 11.8718L20.0896 9.54769C18.9158 9.09301 17.5844 8.85394 16.2243 8.85394C15.8737 8.85394 15.5212 8.86988 15.1762 8.90081C15.0702 8.91113 14.9737 8.83706 14.9568 8.73206C14.8443 8.07674 14.6924 7.50392 14.503 7.02766C14.4796 6.9686 14.4843 6.90203 14.5171 6.84766C14.549 6.79328 14.6052 6.75672 14.6681 6.74922C15.1799 6.6864 15.7049 6.65547 16.2243 6.65547C17.8537 6.65547 19.4615 6.96296 20.8866 7.54609L21.7904 5.27545C21.8166 5.20795 21.8785 5.16014 21.9507 5.14889C22.0229 5.13857 22.0951 5.16764 22.141 5.22483L24.0816 7.68197V3H7.46529V3.86252C7.50935 3.86158 7.55435 3.86065 7.59935 3.86065C7.69217 3.86065 7.78404 3.86252 7.87497 3.86815H7.87778C7.98747 3.86346 8.08779 3.86065 8.18624 3.86065C11.6682 3.86065 14.5005 6.84388 14.5005 10.5114C14.5005 14.1788 11.6682 17.1621 8.18624 17.1621C7.94249 17.1621 7.70249 17.148 7.46436 17.119V18.979L17.5913 18.9799C17.7047 18.9799 17.7957 19.0709 17.7957 19.1843V21.6227C17.7957 23.3562 19.2057 24.7653 20.9382 24.7653C22.6717 24.7653 24.0799 23.3562 24.0808 21.6237L24.0818 11.4648L19.3849 12.1502C19.3746 12.1511 19.3643 12.152 19.3549 12.152L19.3545 12.1521Z" fill="#D9AA0F"/>
<path d="M21.1899 7.89058C21.1693 7.94214 21.129 7.98245 21.0774 8.00402C21.0259 8.02558 20.9687 8.02464 20.9181 8.00308C19.4959 7.38901 17.8722 7.06462 16.2239 7.06462C15.8076 7.06462 15.3885 7.08524 14.9751 7.12743C15.1148 7.52589 15.232 7.9787 15.3257 8.47932C15.622 8.45682 15.9229 8.44557 16.2229 8.44557C17.7098 8.44557 19.1658 8.72306 20.4323 9.24526C20.5355 9.28839 20.5861 9.40557 20.5448 9.50965L19.6748 11.695L26.0001 10.7715L24.1279 8.40057L24.1157 8.38557L22.0382 5.75586L21.1899 7.89058Z" fill="#D9AA0F"/>
</svg>
