<svg width="16" height="16" viewBox="0 0 16 16" fill="none" xmlns="http://www.w3.org/2000/svg">
<path d="M5.1264 5.41951C5.09612 5.39829 5.06005 5.3869 5.02307 5.3869C4.98609 5.3869 4.95001 5.39829 4.91974 5.41951C4.65307 5.59951 5.01973 7.04618 5.27307 7.24618C5.30399 7.26573 5.33982 7.27611 5.3764 7.27611C5.41298 7.27611 5.44882 7.26573 5.47974 7.24618C5.51307 7.35285 5.55307 7.45951 5.59973 7.55951C5.78608 7.96783 6.00923 8.35833 6.2664 8.72618C6.46555 8.99963 6.72086 9.22735 7.0152 9.39407C7.30955 9.56079 7.63614 9.66266 7.97307 9.69285C8.34655 9.70609 8.71627 9.61443 9.04031 9.42826C9.36435 9.24208 9.62974 8.96884 9.8064 8.63951L9.9464 8.43951C10.1019 8.18452 10.2357 7.91691 10.3464 7.63951C10.3864 7.54618 10.4197 7.43951 10.4464 7.33951C10.4738 7.34273 10.5016 7.34024 10.5279 7.33221C10.5543 7.32418 10.5788 7.31078 10.5997 7.29285C10.8531 7.09951 11.2197 5.64618 10.9531 5.46618C10.9292 5.44659 10.9012 5.43279 10.8711 5.42585C10.841 5.41891 10.8098 5.41902 10.7797 5.42618C10.8597 4.97951 10.9131 4.71951 10.9131 4.71951C11.2997 2.71951 8.99974 1.00618 7.2064 1.38618C6.90197 1.43282 6.61243 1.54914 6.36034 1.72606C6.10825 1.90299 5.90043 2.13574 5.75307 2.40618C4.41974 2.56618 4.7864 4.23285 4.7864 4.23285L5.1264 5.41951Z" fill="#D9AA0F"/>
<path d="M13.8402 11.0598L10.4402 9.77317C10.4402 9.73317 9.54016 11.3865 8.82683 12.6998C8.80501 11.9365 8.62093 11.1865 8.28683 10.4998H7.62016C7.27823 11.1819 7.08939 11.9305 7.06683 12.6932C6.34016 11.3598 5.42683 9.75984 5.42683 9.77984L2.0935 11.0532C2.0935 11.0532 1.56016 11.0532 1.42683 11.9265C1.3735 12.4198 1.34683 12.9332 1.3335 13.2598C1.33696 13.4083 1.38622 13.552 1.47453 13.6713C1.56285 13.7907 1.6859 13.8798 1.82683 13.9265C2.60016 14.1932 4.3735 14.5932 7.9335 14.6332C11.4935 14.6732 13.2668 14.1932 14.0402 13.9265C14.1811 13.8798 14.3041 13.7907 14.3925 13.6713C14.4808 13.552 14.53 13.4083 14.5335 13.2598C14.5335 12.8998 14.5002 12.3865 14.4402 11.9265C14.3802 11.0332 13.8402 11.0598 13.8402 11.0598Z" fill="#D9AA0F"/>
</svg>
