<svg width="147" height="32" viewBox="0 0 147 32" fill="none" xmlns="http://www.w3.org/2000/svg">
<path d="M33.4091 23V11.3636H40.4318V12.6136H34.8182V16.5455H40.0682V17.7955H34.8182V21.75H40.5227V23H33.4091ZM43.4698 14.2727L45.5607 17.8409L47.6516 14.2727H49.197L46.3789 18.6364L49.197 23H47.6516L45.5607 19.6136L43.4698 23H41.9243L44.697 18.6364L41.9243 14.2727H43.4698ZM54.0901 23.1818C53.2492 23.1818 52.5238 22.9962 51.914 22.625C51.3079 22.25 50.8401 21.7273 50.5106 21.0568C50.1848 20.3826 50.0219 19.5985 50.0219 18.7045C50.0219 17.8106 50.1848 17.0227 50.5106 16.3409C50.8401 15.6553 51.2984 15.1212 51.8856 14.7386C52.4765 14.3523 53.1659 14.1591 53.9538 14.1591C54.4083 14.1591 54.8572 14.2348 55.3003 14.3864C55.7435 14.5379 56.1469 14.7841 56.5106 15.125C56.8742 15.4621 57.164 15.9091 57.3799 16.4659C57.5958 17.0227 57.7038 17.7083 57.7038 18.5227V19.0909H50.9765V17.9318H56.3401C56.3401 17.4394 56.2416 17 56.0447 16.6136C55.8515 16.2273 55.575 15.9223 55.2151 15.6989C54.8591 15.4754 54.4386 15.3636 53.9538 15.3636C53.4197 15.3636 52.9575 15.4962 52.5674 15.7614C52.181 16.0227 51.8837 16.3636 51.6753 16.7841C51.467 17.2045 51.3628 17.6553 51.3628 18.1364V18.9091C51.3628 19.5682 51.4765 20.1269 51.7038 20.5852C51.9348 21.0398 52.2549 21.3864 52.664 21.625C53.0731 21.8598 53.5484 21.9773 54.0901 21.9773C54.4424 21.9773 54.7606 21.928 55.0447 21.8295C55.3325 21.7273 55.5806 21.5758 55.789 21.375C55.9973 21.1705 56.1583 20.9167 56.2719 20.6136L57.5674 20.9773C57.431 21.4167 57.2019 21.803 56.8799 22.1364C56.5579 22.4659 56.1602 22.7235 55.6867 22.9091C55.2132 23.0909 54.681 23.1818 54.0901 23.1818ZM62.969 23.1818C62.1508 23.1818 61.4463 22.9886 60.8553 22.6023C60.2644 22.2159 59.8099 21.6837 59.4917 21.0057C59.1735 20.3277 59.0144 19.553 59.0144 18.6818C59.0144 17.7955 59.1773 17.0133 59.5031 16.3352C59.8326 15.6534 60.2909 15.1212 60.8781 14.7386C61.469 14.3523 62.1584 14.1591 62.9463 14.1591C63.5599 14.1591 64.1129 14.2727 64.6053 14.5C65.0978 14.7273 65.5012 15.0455 65.8156 15.4545C66.13 15.8636 66.325 16.3409 66.4008 16.8864H65.0599C64.9576 16.4886 64.7303 16.1364 64.3781 15.8295C64.0296 15.5189 63.5599 15.3636 62.969 15.3636C62.4463 15.3636 61.9879 15.5 61.594 15.7727C61.2038 16.0417 60.8989 16.4223 60.6792 16.9148C60.4633 17.4034 60.3553 17.9773 60.3553 18.6364C60.3553 19.3106 60.4614 19.8977 60.6735 20.3977C60.8894 20.8977 61.1925 21.286 61.5826 21.5625C61.9766 21.839 62.4387 21.9773 62.969 21.9773C63.3175 21.9773 63.6338 21.9167 63.9178 21.7955C64.2019 21.6742 64.4425 21.5 64.6394 21.2727C64.8364 21.0455 64.9766 20.7727 65.0599 20.4545H66.4008C66.325 20.9697 66.1375 21.4337 65.8383 21.8466C65.5428 22.2557 65.1508 22.5814 64.6622 22.8239C64.1773 23.0625 63.6129 23.1818 62.969 23.1818ZM73.541 19.4318V14.2727H74.8819V23H73.541V21.5227H73.4501C73.2456 21.9659 72.9274 22.3428 72.4956 22.6534C72.0638 22.9602 71.5183 23.1136 70.8592 23.1136C70.3138 23.1136 69.8289 22.9943 69.4047 22.7557C68.9804 22.5133 68.6471 22.1496 68.4047 21.6648C68.1622 21.1761 68.041 20.5606 68.041 19.8182V14.2727H69.3819V19.7273C69.3819 20.3636 69.56 20.8712 69.916 21.25C70.2759 21.6288 70.7342 21.8182 71.291 21.8182C71.6244 21.8182 71.9634 21.733 72.3081 21.5625C72.6566 21.392 72.9482 21.1307 73.1831 20.7784C73.4217 20.4261 73.541 19.9773 73.541 19.4318ZM80.8134 14.2727V15.4091H76.2906V14.2727H80.8134ZM77.6088 12.1818H78.9497V20.5C78.9497 20.8788 79.0046 21.1629 79.1145 21.3523C79.2281 21.5379 79.3721 21.6629 79.5463 21.7273C79.7243 21.7879 79.9118 21.8182 80.1088 21.8182C80.2565 21.8182 80.3777 21.8106 80.4724 21.7955C80.5671 21.7765 80.6429 21.7614 80.6997 21.75L80.9724 22.9545C80.8815 22.9886 80.7546 23.0227 80.5918 23.0568C80.4289 23.0947 80.2224 23.1136 79.9724 23.1136C79.5937 23.1136 79.2224 23.0322 78.8588 22.8693C78.499 22.7064 78.1997 22.4583 77.9611 22.125C77.7262 21.7917 77.6088 21.3712 77.6088 20.8636V12.1818ZM82.5104 23V14.2727H83.8513V23H82.5104ZM83.1922 12.8182C82.9309 12.8182 82.7055 12.7292 82.5161 12.5511C82.3305 12.3731 82.2377 12.1591 82.2377 11.9091C82.2377 11.6591 82.3305 11.4451 82.5161 11.267C82.7055 11.089 82.9309 11 83.1922 11C83.4536 11 83.6771 11.089 83.8627 11.267C84.0521 11.4451 84.1468 11.6591 84.1468 11.9091C84.1468 12.1591 84.0521 12.3731 83.8627 12.5511C83.6771 12.7292 83.4536 12.8182 83.1922 12.8182ZM93.1236 14.2727L89.8964 23H88.5327L85.3055 14.2727H86.76L89.1691 21.2273H89.26L91.6691 14.2727H93.1236ZM97.9201 23.1818C97.0792 23.1818 96.3538 22.9962 95.744 22.625C95.1379 22.25 94.6701 21.7273 94.3406 21.0568C94.0148 20.3826 93.8519 19.5985 93.8519 18.7045C93.8519 17.8106 94.0148 17.0227 94.3406 16.3409C94.6701 15.6553 95.1284 15.1212 95.7156 14.7386C96.3065 14.3523 96.9959 14.1591 97.7837 14.1591C98.2383 14.1591 98.6872 14.2348 99.1303 14.3864C99.5735 14.5379 99.9769 14.7841 100.341 15.125C100.704 15.4621 100.994 15.9091 101.21 16.4659C101.426 17.0227 101.534 17.7083 101.534 18.5227V19.0909H94.8065V17.9318H100.17C100.17 17.4394 100.072 17 99.8747 16.6136C99.6815 16.2273 99.405 15.9223 99.0451 15.6989C98.6891 15.4754 98.2686 15.3636 97.7837 15.3636C97.2497 15.3636 96.7875 15.4962 96.3974 15.7614C96.011 16.0227 95.7137 16.3636 95.5053 16.7841C95.297 17.2045 95.1928 17.6553 95.1928 18.1364V18.9091C95.1928 19.5682 95.3065 20.1269 95.5337 20.5852C95.7648 21.0398 96.0849 21.3864 96.494 21.625C96.9031 21.8598 97.3784 21.9773 97.9201 21.9773C98.2724 21.9773 98.5906 21.928 98.8747 21.8295C99.1625 21.7273 99.4106 21.5758 99.619 21.375C99.8273 21.1705 99.9883 20.9167 100.102 20.6136L101.397 20.9773C101.261 21.4167 101.032 21.803 100.71 22.1364C100.388 22.4659 99.9902 22.7235 99.5167 22.9091C99.0432 23.0909 98.511 23.1818 97.9201 23.1818ZM108.093 11.3636L111.547 21.1591H111.684L115.138 11.3636H116.615L112.343 23H110.888L106.615 11.3636H108.093ZM117.926 23V14.2727H119.267V23H117.926ZM118.608 12.8182C118.346 12.8182 118.121 12.7292 117.932 12.5511C117.746 12.3731 117.653 12.1591 117.653 11.9091C117.653 11.6591 117.746 11.4451 117.932 11.267C118.121 11.089 118.346 11 118.608 11C118.869 11 119.093 11.089 119.278 11.267C119.468 11.4451 119.562 11.6591 119.562 11.9091C119.562 12.1591 119.468 12.3731 119.278 12.5511C119.093 12.7292 118.869 12.8182 118.608 12.8182ZM125.062 23.1818C124.221 23.1818 123.496 22.9962 122.886 22.625C122.28 22.25 121.812 21.7273 121.482 21.0568C121.157 20.3826 120.994 19.5985 120.994 18.7045C120.994 17.8106 121.157 17.0227 121.482 16.3409C121.812 15.6553 122.27 15.1212 122.857 14.7386C123.448 14.3523 124.138 14.1591 124.926 14.1591C125.38 14.1591 125.829 14.2348 126.272 14.3864C126.715 14.5379 127.119 14.7841 127.482 15.125C127.846 15.4621 128.136 15.9091 128.352 16.4659C128.568 17.0227 128.676 17.7083 128.676 18.5227V19.0909H121.948V17.9318H127.312C127.312 17.4394 127.214 17 127.017 16.6136C126.823 16.2273 126.547 15.9223 126.187 15.6989C125.831 15.4754 125.41 15.3636 124.926 15.3636C124.392 15.3636 123.929 15.4962 123.539 15.7614C123.153 16.0227 122.856 16.3636 122.647 16.7841C122.439 17.2045 122.335 17.6553 122.335 18.1364V18.9091C122.335 19.5682 122.448 20.1269 122.676 20.5852C122.907 21.0398 123.227 21.3864 123.636 21.625C124.045 21.8598 124.52 21.9773 125.062 21.9773C125.414 21.9773 125.732 21.928 126.017 21.8295C126.304 21.7273 126.553 21.5758 126.761 21.375C126.969 21.1705 127.13 20.9167 127.244 20.6136L128.539 20.9773C128.403 21.4167 128.174 21.803 127.852 22.1364C127.53 22.4659 127.132 22.7235 126.659 22.9091C126.185 23.0909 125.653 23.1818 125.062 23.1818ZM132.373 23L129.714 14.2727H131.123L133.009 20.9545H133.1L134.964 14.2727H136.395L138.236 20.9318H138.327L140.214 14.2727H141.623L138.964 23H137.645L135.736 16.2955H135.6L133.691 23H132.373Z" fill="#948C8C"/>
<path d="M8.9712 9.48439C8.91822 9.44725 8.85508 9.42732 8.79037 9.42732C8.72566 9.42732 8.66252 9.44725 8.60954 9.48439C8.14287 9.79939 8.78454 12.3311 9.22787 12.6811C9.28198 12.7153 9.34468 12.7334 9.4087 12.7334C9.47272 12.7334 9.53543 12.7153 9.58954 12.6811C9.64787 12.8677 9.71787 13.0544 9.79954 13.2294C10.1256 13.944 10.5161 14.6273 10.9662 15.2711C11.3147 15.7496 11.7615 16.1481 12.2766 16.4399C12.7917 16.7316 13.3632 16.9099 13.9529 16.9627C14.6065 16.9859 15.2535 16.8255 15.8205 16.4997C16.3876 16.1739 16.8521 15.6957 17.1612 15.1194L17.4062 14.7694C17.6783 14.3232 17.9125 13.8548 18.1062 13.3694C18.1762 13.2061 18.2345 13.0194 18.2812 12.8444C18.3291 12.85 18.3777 12.8457 18.4239 12.8316C18.4701 12.8176 18.5129 12.7941 18.5495 12.7627C18.9929 12.4244 19.6345 9.88106 19.1679 9.56606C19.1261 9.53178 19.077 9.50762 19.0244 9.49548C18.9718 9.48334 18.9171 9.48353 18.8645 9.49606C19.0045 8.71439 19.0979 8.25939 19.0979 8.25939C19.7745 4.75939 15.7495 1.76106 12.6112 2.42606C12.0785 2.50768 11.5718 2.71123 11.1306 3.02085C10.6894 3.33047 10.3257 3.73779 10.0679 4.21106C7.73454 4.49106 8.3762 7.40773 8.3762 7.40773L8.9712 9.48439Z" fill="#D9AA0F"/>
<path d="M24.2202 19.3545L18.2702 17.1028C18.2702 17.0328 16.6952 19.9261 15.4468 22.2245C15.4086 20.8886 15.0865 19.5762 14.5018 18.3745H13.3352C12.7368 19.5682 12.4063 20.8781 12.3668 22.2128C11.0952 19.8795 9.49683 17.0795 9.49683 17.1145L3.6635 19.3428C3.6635 19.3428 2.73016 19.3428 2.49683 20.8711C2.4035 21.7345 2.35683 22.6328 2.3335 23.2045C2.33955 23.4642 2.42576 23.7157 2.58031 23.9246C2.73486 24.1334 2.9502 24.2894 3.19683 24.3711C4.55016 24.8378 7.6535 25.5378 13.8835 25.6078C20.1135 25.6778 23.2168 24.8378 24.5702 24.3711C24.8168 24.2894 25.0321 24.1334 25.1867 23.9246C25.3412 23.7157 25.4274 23.4642 25.4335 23.2045C25.4335 22.5745 25.3752 21.6761 25.2702 20.8711C25.1652 19.3078 24.2202 19.3545 24.2202 19.3545Z" fill="#D9AA0F"/>
</svg>
