<svg width="148" height="28" viewBox="0 0 148 28" fill="none" xmlns="http://www.w3.org/2000/svg">
<path d="M33.233 22V11.8182H39.3778V12.9119H34.4659V16.3523H39.0597V17.446H34.4659V20.9062H39.4574V22H33.233ZM42.0361 14.3636L43.8656 17.4858L45.6951 14.3636H47.0474L44.5815 18.1818L47.0474 22H45.6951L43.8656 19.0369L42.0361 22H40.6838L43.1099 18.1818L40.6838 14.3636H42.0361ZM48.4416 24.8636V14.3636H49.5751V15.5767H49.7143C49.8005 15.4441 49.9198 15.2751 50.0723 15.0696C50.2281 14.8608 50.4501 14.6752 50.7385 14.5128C51.0301 14.3471 51.4246 14.2642 51.9217 14.2642C52.5647 14.2642 53.1315 14.425 53.622 14.7464C54.1125 15.0679 54.4953 15.5237 54.7704 16.1136C55.0455 16.7036 55.1831 17.3996 55.1831 18.2017C55.1831 19.0104 55.0455 19.7114 54.7704 20.3047C54.4953 20.8946 54.1142 21.352 53.627 21.6768C53.1398 21.9983 52.578 22.1591 51.9416 22.1591C51.4511 22.1591 51.0583 22.0779 50.7633 21.9155C50.4683 21.7498 50.2413 21.5625 50.0822 21.3537C49.9231 21.1416 49.8005 20.9659 49.7143 20.8267H49.6149V24.8636H48.4416ZM49.595 18.1818C49.595 18.7585 49.6795 19.2673 49.8486 19.7081C50.0176 20.1456 50.2645 20.4886 50.5893 20.7372C50.9141 20.9825 51.3119 21.1051 51.7825 21.1051C52.273 21.1051 52.6824 20.9759 53.0105 20.7173C53.3419 20.4555 53.5905 20.1042 53.7562 19.6634C53.9253 19.2192 54.0098 18.7254 54.0098 18.1818C54.0098 17.6449 53.9269 17.161 53.7612 16.7301C53.5988 16.2959 53.3519 15.9529 53.0204 15.701C52.6923 15.4458 52.2797 15.3182 51.7825 15.3182C51.3052 15.3182 50.9042 15.4392 50.5794 15.6811C50.2546 15.9197 50.0093 16.2545 49.8436 16.6854C49.6779 17.1129 49.595 17.6117 49.595 18.1818ZM59.8946 22.1591C59.1588 22.1591 58.5241 21.9967 57.9904 21.6719C57.4601 21.3438 57.0508 20.8864 56.7625 20.2997C56.4774 19.7098 56.3349 19.0237 56.3349 18.2415C56.3349 17.4593 56.4774 16.7699 56.7625 16.1733C57.0508 15.5734 57.4518 15.1061 57.9656 14.7713C58.4826 14.4332 59.0858 14.2642 59.7752 14.2642C60.173 14.2642 60.5657 14.3305 60.9535 14.4631C61.3413 14.5956 61.6943 14.8111 62.0125 15.1094C62.3306 15.4044 62.5842 15.7955 62.7731 16.2827C62.962 16.7699 63.0565 17.3698 63.0565 18.0824V18.5795H57.1701V17.5653H61.8633C61.8633 17.1345 61.7771 16.75 61.6048 16.4119C61.4357 16.0739 61.1938 15.8071 60.8789 15.6115C60.5674 15.416 60.1995 15.3182 59.7752 15.3182C59.3079 15.3182 58.9035 15.4342 58.5622 15.6662C58.2241 15.8949 57.9639 16.1932 57.7816 16.5611C57.5993 16.929 57.5082 17.3234 57.5082 17.7443V18.4205C57.5082 18.9972 57.6076 19.486 57.8065 19.8871C58.0087 20.2848 58.2887 20.5881 58.6467 20.7969C59.0046 21.0024 59.4206 21.1051 59.8946 21.1051C60.2028 21.1051 60.4812 21.062 60.7298 20.9759C60.9817 20.8864 61.1988 20.7538 61.3811 20.5781C61.5633 20.3991 61.7042 20.1771 61.8036 19.9119L62.9372 20.2301C62.8178 20.6146 62.6173 20.9527 62.3356 21.2443C62.0539 21.5327 61.7059 21.758 61.2916 21.9205C60.8773 22.0795 60.4116 22.1591 59.8946 22.1591ZM65.7346 17.4062V22H64.5613V14.3636H65.6948V15.5568H65.7942C65.9732 15.169 66.245 14.8575 66.6096 14.6222C66.9742 14.3835 67.4448 14.2642 68.0215 14.2642C68.5386 14.2642 68.991 14.3703 69.3788 14.5824C69.7665 14.7912 70.0682 15.1094 70.2836 15.5369C70.499 15.9612 70.6067 16.4981 70.6067 17.1477V22H69.4334V17.2273C69.4334 16.6274 69.2777 16.16 68.9661 15.8253C68.6546 15.4872 68.227 15.3182 67.6834 15.3182C67.3089 15.3182 66.9742 15.3994 66.6792 15.5618C66.3875 15.7242 66.1572 15.9612 65.9881 16.2727C65.8191 16.5843 65.7346 16.9621 65.7346 17.4062ZM77.8798 16.0739L76.8259 16.3722C76.7596 16.1965 76.6618 16.0258 76.5325 15.8601C76.4066 15.6911 76.2342 15.5518 76.0155 15.4425C75.7967 15.3331 75.5167 15.2784 75.1753 15.2784C74.708 15.2784 74.3185 15.3861 74.007 15.6016C73.6987 15.8137 73.5446 16.0838 73.5446 16.4119C73.5446 16.7036 73.6507 16.9339 73.8628 17.103C74.0749 17.272 74.4063 17.4129 74.8571 17.5256L75.9906 17.804C76.6734 17.9697 77.1821 18.2232 77.5169 18.5646C77.8517 18.9027 78.019 19.3385 78.019 19.8722C78.019 20.3097 77.8931 20.7008 77.6412 21.0455C77.3926 21.3902 77.0446 21.6619 76.5972 21.8608C76.1497 22.0597 75.6294 22.1591 75.0361 22.1591C74.2572 22.1591 73.6125 21.9901 73.1021 21.652C72.5917 21.3139 72.2686 20.8201 72.1327 20.1705L73.2463 19.892C73.3524 20.303 73.5529 20.6113 73.8479 20.8168C74.1462 21.0223 74.5356 21.125 75.0162 21.125C75.5631 21.125 75.9973 21.009 76.3187 20.777C76.6436 20.5417 76.806 20.2599 76.806 19.9318C76.806 19.6667 76.7132 19.4446 76.5276 19.2656C76.3419 19.0833 76.0569 18.9474 75.6724 18.858L74.3997 18.5597C73.7004 18.3939 73.1866 18.1371 72.8585 17.7891C72.5337 17.4377 72.3713 16.9986 72.3713 16.4716C72.3713 16.0407 72.4923 15.6596 72.7342 15.3281C72.9795 14.9967 73.3126 14.7365 73.7335 14.5476C74.1578 14.3587 74.6384 14.2642 75.1753 14.2642C75.931 14.2642 76.5242 14.4299 76.9551 14.7614C77.3893 15.0928 77.6975 15.5303 77.8798 16.0739ZM82.7069 22.1591C81.9711 22.1591 81.3364 21.9967 80.8028 21.6719C80.2725 21.3438 79.8631 20.8864 79.5748 20.2997C79.2898 19.7098 79.1472 19.0237 79.1472 18.2415C79.1472 17.4593 79.2898 16.7699 79.5748 16.1733C79.8631 15.5734 80.2642 15.1061 80.7779 14.7713C81.295 14.4332 81.8982 14.2642 82.5876 14.2642C82.9853 14.2642 83.3781 14.3305 83.7658 14.4631C84.1536 14.5956 84.5066 14.8111 84.8248 15.1094C85.143 15.4044 85.3965 15.7955 85.5854 16.2827C85.7744 16.7699 85.8688 17.3698 85.8688 18.0824V18.5795H79.9825V17.5653H84.6756C84.6756 17.1345 84.5895 16.75 84.4171 16.4119C84.2481 16.0739 84.0061 15.8071 83.6913 15.6115C83.3797 15.416 83.0118 15.3182 82.5876 15.3182C82.1202 15.3182 81.7159 15.4342 81.3745 15.6662C81.0364 15.8949 80.7763 16.1932 80.594 16.5611C80.4117 16.929 80.3205 17.3234 80.3205 17.7443V18.4205C80.3205 18.9972 80.42 19.486 80.6188 19.8871C80.821 20.2848 81.1011 20.5881 81.459 20.7969C81.817 21.0024 82.2329 21.1051 82.7069 21.1051C83.0151 21.1051 83.2935 21.062 83.5421 20.9759C83.794 20.8864 84.0111 20.7538 84.1934 20.5781C84.3757 20.3991 84.5166 20.1771 84.616 19.9119L85.7495 20.2301C85.6302 20.6146 85.4297 20.9527 85.1479 21.2443C84.8662 21.5327 84.5182 21.758 84.1039 21.9205C83.6896 22.0795 83.2239 22.1591 82.7069 22.1591ZM94.3323 22H91.1902V11.8182H94.4715C95.4592 11.8182 96.3043 12.022 97.007 12.4297C97.7096 12.834 98.2482 13.4157 98.6227 14.1747C98.9973 14.9304 99.1845 15.8352 99.1845 16.8892C99.1845 17.9498 98.9956 18.8629 98.6178 19.6286C98.2399 20.3909 97.6897 20.9775 96.9672 21.3885C96.2447 21.7962 95.3664 22 94.3323 22ZM92.4232 20.9062H94.2527C95.0946 20.9062 95.7923 20.7438 96.3458 20.419C96.8993 20.0942 97.3119 19.6319 97.5837 19.032C97.8555 18.4321 97.9914 17.7178 97.9914 16.8892C97.9914 16.0672 97.8571 15.3596 97.5887 14.7663C97.3202 14.1697 96.9191 13.7124 96.3855 13.3942C95.8519 13.0727 95.1874 12.9119 94.3919 12.9119H92.4232V20.9062ZM104.015 22.1591C103.28 22.1591 102.645 21.9967 102.111 21.6719C101.581 21.3438 101.172 20.8864 100.883 20.2997C100.598 19.7098 100.456 19.0237 100.456 18.2415C100.456 17.4593 100.598 16.7699 100.883 16.1733C101.172 15.5734 101.573 15.1061 102.086 14.7713C102.603 14.4332 103.207 14.2642 103.896 14.2642C104.294 14.2642 104.687 14.3305 105.074 14.4631C105.462 14.5956 105.815 14.8111 106.133 15.1094C106.451 15.4044 106.705 15.7955 106.894 16.2827C107.083 16.7699 107.177 17.3698 107.177 18.0824V18.5795H101.291V17.5653H105.984C105.984 17.1345 105.898 16.75 105.726 16.4119C105.557 16.0739 105.315 15.8071 105 15.6115C104.688 15.416 104.32 15.3182 103.896 15.3182C103.429 15.3182 103.024 15.4342 102.683 15.6662C102.345 15.8949 102.085 16.1932 101.902 16.5611C101.72 16.929 101.629 17.3234 101.629 17.7443V18.4205C101.629 18.9972 101.728 19.486 101.927 19.8871C102.129 20.2848 102.41 20.5881 102.767 20.7969C103.125 21.0024 103.541 21.1051 104.015 21.1051C104.324 21.1051 104.602 21.062 104.851 20.9759C105.102 20.8864 105.32 20.7538 105.502 20.5781C105.684 20.3991 105.825 20.1771 105.924 19.9119L107.058 20.2301C106.939 20.6146 106.738 20.9527 106.456 21.2443C106.175 21.5327 105.827 21.758 105.412 21.9205C104.998 22.0795 104.532 22.1591 104.015 22.1591ZM112.003 14.3636V15.358H108.046V14.3636H112.003ZM109.199 12.5341H110.372V19.8125C110.372 20.1439 110.42 20.3925 110.517 20.5582C110.616 20.7206 110.742 20.83 110.894 20.8864C111.05 20.9394 111.214 20.9659 111.387 20.9659C111.516 20.9659 111.622 20.9593 111.705 20.946C111.788 20.9295 111.854 20.9162 111.904 20.9062L112.142 21.9602C112.063 21.9901 111.952 22.0199 111.809 22.0497C111.667 22.0829 111.486 22.0994 111.267 22.0994C110.936 22.0994 110.611 22.0282 110.293 21.8857C109.978 21.7431 109.716 21.526 109.507 21.2344C109.302 20.9427 109.199 20.5748 109.199 20.1307V12.5341ZM115.735 22.179C115.251 22.179 114.812 22.0878 114.418 21.9055C114.023 21.7199 113.71 21.4531 113.478 21.1051C113.246 20.7538 113.13 20.3295 113.13 19.8324C113.13 19.3949 113.216 19.0402 113.389 18.7685C113.561 18.4934 113.791 18.2779 114.08 18.1222C114.368 17.9664 114.686 17.8504 115.034 17.7741C115.385 17.6946 115.738 17.6316 116.093 17.5852C116.557 17.5256 116.933 17.4808 117.222 17.451C117.513 17.4179 117.725 17.3632 117.858 17.2869C117.994 17.2107 118.062 17.0781 118.062 16.8892V16.8494C118.062 16.3589 117.928 15.9777 117.659 15.706C117.394 15.4342 116.991 15.2983 116.451 15.2983C115.891 15.2983 115.452 15.4209 115.134 15.6662C114.815 15.9115 114.592 16.1733 114.462 16.4517L113.349 16.054C113.548 15.59 113.813 15.2287 114.144 14.9702C114.479 14.7083 114.844 14.526 115.238 14.4233C115.636 14.3172 116.027 14.2642 116.411 14.2642C116.657 14.2642 116.938 14.294 117.256 14.3537C117.578 14.41 117.888 14.5277 118.186 14.7067C118.488 14.8857 118.738 15.1558 118.937 15.517C119.136 15.8783 119.235 16.3622 119.235 16.9688V22H118.062V20.9659H118.002C117.923 21.1316 117.79 21.3089 117.604 21.4979C117.419 21.6868 117.172 21.8475 116.864 21.9801C116.555 22.1127 116.179 22.179 115.735 22.179ZM115.914 21.125C116.378 21.125 116.769 21.0339 117.087 20.8516C117.409 20.6693 117.651 20.4339 117.813 20.1456C117.979 19.8572 118.062 19.554 118.062 19.2358V18.1619C118.012 18.2216 117.903 18.2763 117.734 18.326C117.568 18.3724 117.376 18.4138 117.157 18.4503C116.942 18.4834 116.731 18.5133 116.526 18.5398C116.323 18.563 116.159 18.5829 116.033 18.5994C115.729 18.6392 115.443 18.7038 115.178 18.7933C114.917 18.8795 114.704 19.0104 114.542 19.1861C114.383 19.3584 114.303 19.5937 114.303 19.892C114.303 20.2997 114.454 20.608 114.756 20.8168C115.061 21.0223 115.447 21.125 115.914 21.125ZM121.097 22V14.3636H122.27V22H121.097ZM121.693 13.0909C121.465 13.0909 121.267 13.013 121.102 12.8572C120.939 12.7015 120.858 12.5142 120.858 12.2955C120.858 12.0767 120.939 11.8894 121.102 11.7337C121.267 11.5779 121.465 11.5 121.693 11.5C121.922 11.5 122.118 11.5779 122.28 11.7337C122.446 11.8894 122.528 12.0767 122.528 12.2955C122.528 12.5142 122.446 12.7015 122.28 12.8572C122.118 13.013 121.922 13.0909 121.693 13.0909ZM125.312 11.8182V22H124.139V11.8182H125.312ZM132.59 16.0739L131.536 16.3722C131.47 16.1965 131.372 16.0258 131.243 15.8601C131.117 15.6911 130.945 15.5518 130.726 15.4425C130.507 15.3331 130.227 15.2784 129.886 15.2784C129.418 15.2784 129.029 15.3861 128.717 15.6016C128.409 15.8137 128.255 16.0838 128.255 16.4119C128.255 16.7036 128.361 16.9339 128.573 17.103C128.785 17.272 129.117 17.4129 129.568 17.5256L130.701 17.804C131.384 17.9697 131.893 18.2232 132.227 18.5646C132.562 18.9027 132.73 19.3385 132.73 19.8722C132.73 20.3097 132.604 20.7008 132.352 21.0455C132.103 21.3902 131.755 21.6619 131.308 21.8608C130.86 22.0597 130.34 22.1591 129.747 22.1591C128.968 22.1591 128.323 21.9901 127.813 21.652C127.302 21.3139 126.979 20.8201 126.843 20.1705L127.957 19.892C128.063 20.303 128.263 20.6113 128.558 20.8168C128.857 21.0223 129.246 21.125 129.727 21.125C130.274 21.125 130.708 21.009 131.029 20.777C131.354 20.5417 131.516 20.2599 131.516 19.9318C131.516 19.6667 131.424 19.4446 131.238 19.2656C131.052 19.0833 130.767 18.9474 130.383 18.858L129.11 18.5597C128.411 18.3939 127.897 18.1371 127.569 17.7891C127.244 17.4377 127.082 16.9986 127.082 16.4716C127.082 16.0407 127.203 15.6596 127.445 15.3281C127.69 14.9967 128.023 14.7365 128.444 14.5476C128.868 14.3587 129.349 14.2642 129.886 14.2642C130.641 14.2642 131.235 14.4299 131.666 14.7614C132.1 15.0928 132.408 15.5303 132.59 16.0739Z" fill="#777672"/>
<path d="M13.1976 10.4074C13.1976 7.02286 10.685 4.27051 7.59882 4.27051C7.49288 4.27051 7.386 4.27332 7.28101 4.28082C7.27444 4.28176 7.26788 4.28176 7.26038 4.28176C4.32875 4.47395 2 7.14763 2 10.4073C2 13.7919 4.51067 16.5442 7.59879 16.5442C10.685 16.5433 13.1976 13.7907 13.1976 10.4074ZM3.00132 10.3418C3.00132 7.59756 5.0179 5.36457 7.4949 5.36457C9.97365 5.36457 11.9894 7.59773 11.9894 10.3418C11.9894 13.0869 9.97285 15.3199 7.4949 15.3199C5.01694 15.3199 3.00132 13.0867 3.00132 10.3418Z" fill="#D9AA0F"/>
<path d="M7.53063 5.77353H7.495C5.24217 5.77353 3.41016 7.82388 3.41016 10.342C3.41016 11.122 3.58641 11.857 3.89578 12.5001C3.67734 11.9161 3.56016 11.2814 3.56016 10.6261C3.56016 8.09666 5.3059 6.00994 7.53063 5.77353Z" fill="#D9AA0F"/>
<path d="M9.05125 6.11824C8.69687 6.00949 8.32937 5.95605 7.95343 5.95605C5.64434 5.95605 3.76562 8.05234 3.76562 10.6267C3.76562 11.928 4.24282 13.1449 5.07251 14.0177C5.07345 14.0187 5.07439 14.0196 5.07439 14.0196C5.7522 14.5802 6.59034 14.9112 7.49506 14.9112C9.74883 14.9112 11.5806 12.8608 11.5806 10.3418C11.5806 8.43862 10.5344 6.80369 9.05125 6.11824ZM9.75345 11.6525C9.61095 12.8253 8.95189 13.4516 7.77437 13.5237L7.72187 14.2925L7.14341 14.2916L7.19591 13.5219C6.06245 13.4056 5.52338 12.7091 5.5787 11.4425L6.62027 11.4453C6.6137 11.9806 6.82371 12.3106 7.27279 12.4053L7.38716 10.7159C7.31122 10.6962 7.31872 10.6962 7.24279 10.6784C6.23871 10.3549 5.76902 9.77182 5.82715 8.92711C5.93591 7.67929 6.53591 7.03334 7.64217 6.99021L7.69561 6.20176C8.07436 6.20269 8.26 6.40988 8.23281 6.81395L8.22062 6.99208C9.25564 7.08958 9.75813 7.74771 9.73751 8.95898L9.13657 8.9571C8.91157 8.96554 8.76718 8.82397 8.68844 8.50522C8.63031 8.22303 8.44937 8.05335 8.15124 8.00554L8.03499 9.70337C8.3528 9.79806 8.6828 9.93118 9.04281 10.0915C9.61 10.3474 9.84439 10.8743 9.75345 11.6525Z" fill="#D9AA0F"/>
<path d="M6.86548 8.73326C6.84298 9.06139 7.04174 9.31639 7.4683 9.50482L7.57049 8.00293C7.14299 8.06762 6.91797 8.302 6.86548 8.73326Z" fill="#D9AA0F"/>
<path d="M7.95225 10.8965L7.84912 12.4078C8.39194 12.3721 8.67132 12.119 8.69662 11.6409C8.72849 11.1712 8.32915 11.0296 7.95225 10.8965Z" fill="#D9AA0F"/>
<path d="M13.6067 10.4074C13.6067 13.2368 11.951 15.6519 9.64014 16.563C12.1957 15.8767 14.0924 13.4252 14.0924 10.5123C14.0924 8.1741 12.8699 6.13221 11.0643 5.06348C12.6018 6.24943 13.6067 8.20223 13.6067 10.4074Z" fill="#D9AA0F"/>
<path d="M17.3862 21.6228V19.3887H4.11768V21.6228C4.11768 23.3562 5.52769 24.7654 7.26027 24.7654C7.26777 24.7654 7.27433 24.7654 7.28183 24.7663H19.2885C18.1578 24.1719 17.3862 22.986 17.3862 21.6228Z" fill="#D9AA0F"/>
<path d="M19.3545 12.1521C19.2917 12.1521 19.2327 12.1249 19.1942 12.0743C19.1483 12.0171 19.137 11.9402 19.1642 11.8718L20.0896 9.54769C18.9158 9.09301 17.5844 8.85394 16.2243 8.85394C15.8737 8.85394 15.5212 8.86988 15.1762 8.90081C15.0702 8.91113 14.9737 8.83706 14.9568 8.73206C14.8443 8.07674 14.6924 7.50392 14.503 7.02766C14.4796 6.9686 14.4843 6.90203 14.5171 6.84766C14.549 6.79328 14.6052 6.75672 14.6681 6.74922C15.1799 6.6864 15.7049 6.65547 16.2243 6.65547C17.8537 6.65547 19.4615 6.96296 20.8866 7.54609L21.7904 5.27545C21.8166 5.20795 21.8785 5.16014 21.9507 5.14889C22.0229 5.13857 22.0951 5.16764 22.141 5.22483L24.0816 7.68197V3H7.46529V3.86252C7.50935 3.86158 7.55435 3.86065 7.59935 3.86065C7.69217 3.86065 7.78404 3.86252 7.87497 3.86815H7.87778C7.98747 3.86346 8.08779 3.86065 8.18624 3.86065C11.6682 3.86065 14.5005 6.84388 14.5005 10.5114C14.5005 14.1788 11.6682 17.1621 8.18624 17.1621C7.94249 17.1621 7.70249 17.148 7.46436 17.119V18.979L17.5913 18.9799C17.7047 18.9799 17.7957 19.0709 17.7957 19.1843V21.6227C17.7957 23.3562 19.2057 24.7653 20.9382 24.7653C22.6717 24.7653 24.0799 23.3562 24.0808 21.6237L24.0818 11.4648L19.3849 12.1502C19.3746 12.1511 19.3643 12.152 19.3549 12.152L19.3545 12.1521Z" fill="#D9AA0F"/>
<path d="M21.1899 7.89058C21.1693 7.94214 21.129 7.98245 21.0774 8.00402C21.0259 8.02558 20.9687 8.02464 20.9181 8.00308C19.4959 7.38901 17.8722 7.06462 16.2239 7.06462C15.8076 7.06462 15.3885 7.08524 14.9751 7.12743C15.1148 7.52589 15.232 7.9787 15.3257 8.47932C15.622 8.45682 15.9229 8.44557 16.2229 8.44557C17.7098 8.44557 19.1658 8.72306 20.4323 9.24526C20.5355 9.28839 20.5861 9.40557 20.5448 9.50965L19.6748 11.695L26.0001 10.7715L24.1279 8.40057L24.1157 8.38557L22.0382 5.75586L21.1899 7.89058Z" fill="#D9AA0F"/>
</svg>
